<svg xmlns="http://www.w3.org/2000/svg" viewBox="0 0 1240 520" font-family="'Times New Roman', Georgia, serif"><rect x="0" y="0" width="1240" height="520" fill="#ffffff"/><defs><marker id="arw" markerWidth="11" markerHeight="11" refX="8.5" refY="5" orient="auto" markerUnits="userSpaceOnUse"><path d="M1,1 L9,5 L1,9 Z" fill="#1b1b1b"/></marker></defs><rect x="70" y="30" width="30" height="22" rx="7" ry="7" fill="#f4ddc6" stroke="#7a6a58" stroke-width="1.8"/><text x="110" y="47" font-size="21" text-anchor="start" fill="#1b1b1b" font-weight="normal">Module</text><rect x="188" y="30" width="30" height="22" rx="7" ry="7" fill="#ededed" stroke="#bdbdbd" stroke-width="1.8"/><text x="228" y="47" font-size="21" text-anchor="start" fill="#1b1b1b" font-weight="normal">Generated Text</text><rect x="394" y="30" width="30" height="22" rx="7" ry="7" fill="#dde4ee" stroke="#92a1b6" stroke-width="1.8"/><text x="434" y="47" font-size="21" text-anchor="start" fill="#1b1b1b" font-weight="normal">Provided Text</text><rect x="60" y="120" width="170" height="84" rx="14" ry="14" fill="#ededed" stroke="#bdbdbd" stroke-width="1.8"/><text x="145.0" y="169.48" font-size="22" text-anchor="middle" fill="#1b1b1b" font-weight="normal">Observe</text><rect x="300" y="120" width="170" height="84" rx="14" ry="14" fill="#f4ddc6" stroke="#7a6a58" stroke-width="1.8"/><text x="385.0" y="169.48" font-size="22" text-anchor="middle" fill="#1b1b1b" font-weight="normal">Plan</text><rect x="540" y="120" width="170" height="84" rx="14" ry="14" fill="#f4ddc6" stroke="#7a6a58" stroke-width="1.8"/><text x="625.0" y="169.48" font-size="22" text-anchor="middle" fill="#1b1b1b" font-weight="normal">Act / Tool</text><rect x="780" y="120" width="170" height="84" rx="14" ry="14" fill="#ededed" stroke="#bdbdbd" stroke-width="1.8"/><text x="865.0" y="169.48" font-size="22" text-anchor="middle" fill="#1b1b1b" font-weight="normal">Result</text><line x1="230" y1="162" x2="300" y2="162" stroke="#1b1b1b" stroke-width="2.0" marker-end="url(#arw)"/><line x1="470" y1="162" x2="540" y2="162" stroke="#1b1b1b" stroke-width="2.0" marker-end="url(#arw)"/><line x1="710" y1="162" x2="780" y2="162" stroke="#1b1b1b" stroke-width="2.0" marker-end="url(#arw)"/><rect x="1020" y="120" width="150" height="84" rx="14" ry="14" fill="#ffffff" stroke="#1b1b1b" stroke-width="2.0"/><text x="1095" y="168" font-size="22" text-anchor="middle" fill="#1b1b1b" font-weight="normal">done?</text><line x1="950" y1="162" x2="1018" y2="162" stroke="#1b1b1b" stroke-width="2.0" marker-end="url(#arw)"/><rect x="470" y="258" width="110" height="46" rx="14" ry="14" fill="#dde4ee" stroke="#92a1b6" stroke-width="2.0"/><text x="525.0" y="286.78" font-size="17" text-anchor="middle" fill="#1b1b1b" font-weight="normal">python</text><rect x="590" y="258" width="110" height="46" rx="14" ry="14" fill="#dde4ee" stroke="#92a1b6" stroke-width="2.0"/><text x="645.0" y="286.78" font-size="17" text-anchor="middle" fill="#1b1b1b" font-weight="normal">browser</text><rect x="710" y="258" width="110" height="46" rx="14" ry="14" fill="#dde4ee" stroke="#92a1b6" stroke-width="2.0"/><text x="765.0" y="286.78" font-size="17" text-anchor="middle" fill="#1b1b1b" font-weight="normal">search</text><polyline points="625,258 625,206" fill="none" stroke="#1b1b1b" stroke-width="2.0" stroke-linejoin="round" stroke-linecap="round" marker-end="url(#arw)"/><rect x="1020" y="300" width="150" height="70" rx="14" ry="14" fill="#ededed" stroke="#bdbdbd" stroke-width="1.8"/><text x="1095.0" y="342.48" font-size="22" text-anchor="middle" fill="#1b1b1b" font-weight="normal">Reward</text><polyline points="1095,204 1095,300" fill="none" stroke="#1b1b1b" stroke-width="2.0" stroke-linejoin="round" stroke-linecap="round" marker-end="url(#arw)"/><text x="1112" y="256" font-size="17" text-anchor="start" fill="#666" font-weight="normal" font-style="italic">yes</text><polyline points="1095,120 1095,80 145,80 145,120" fill="none" stroke="#1b1b1b" stroke-width="2.0" stroke-linejoin="round" stroke-linecap="round" marker-end="url(#arw)"/><text x="560" y="72" font-size="18" text-anchor="middle" fill="#666" font-weight="normal" font-style="italic">no  —  revise &amp; continue</text><text x="620.0" y="500" font-size="19" text-anchor="middle" fill="#666">reward  =  task success  +  process (right tools, no wasted steps, recovery)</text></svg>