<svg xmlns="http://www.w3.org/2000/svg" viewBox="0 0 1200 440" font-family="'Times New Roman', Georgia, serif"><rect x="0" y="0" width="1200" height="440" fill="#ffffff"/><defs><marker id="arw" markerWidth="11" markerHeight="11" refX="8.5" refY="5" orient="auto" markerUnits="userSpaceOnUse"><path d="M1,1 L9,5 L1,9 Z" fill="#1b1b1b"/></marker></defs><text x="600.0" y="50" font-size="24" text-anchor="middle" fill="#1b1b1b" font-weight="bold">Attention head sharing</text><rect x="40" y="90" width="340" height="260" rx="16" ry="16" fill="#ffffff" stroke="#1b1b1b" stroke-width="1.8"/><text x="210" y="380" font-size="23" text-anchor="middle" fill="#1b1b1b" font-weight="bold">MHA</text><circle cx="100.0" cy="150" r="13" fill="#fff" stroke="#1b1b1b" stroke-width="1.8"/><circle cx="173.33333333333331" cy="150" r="13" fill="#fff" stroke="#1b1b1b" stroke-width="1.8"/><circle cx="246.66666666666666" cy="150" r="13" fill="#fff" stroke="#1b1b1b" stroke-width="1.8"/><circle cx="320.0" cy="150" r="13" fill="#fff" stroke="#1b1b1b" stroke-width="1.8"/><text x="82" y="156" font-size="20" text-anchor="end" fill="#1b1b1b" font-weight="normal">Q</text><circle cx="100.0" cy="300" r="13" fill="#fff" stroke="#1b1b1b" stroke-width="1.8"/><circle cx="173.33333333333331" cy="300" r="13" fill="#fff" stroke="#1b1b1b" stroke-width="1.8"/><circle cx="246.66666666666666" cy="300" r="13" fill="#fff" stroke="#1b1b1b" stroke-width="1.8"/><circle cx="320.0" cy="300" r="13" fill="#fff" stroke="#1b1b1b" stroke-width="1.8"/><line x1="100.0" y1="163" x2="100.0" y2="287" stroke="#1b1b1b" stroke-width="1.2"/><line x1="173.33333333333331" y1="163" x2="173.33333333333331" y2="287" stroke="#1b1b1b" stroke-width="1.2"/><line x1="246.66666666666666" y1="163" x2="246.66666666666666" y2="287" stroke="#1b1b1b" stroke-width="1.2"/><line x1="320.0" y1="163" x2="320.0" y2="287" stroke="#1b1b1b" stroke-width="1.2"/><text x="82" y="306" font-size="20" text-anchor="end" fill="#1b1b1b" font-weight="normal">KV</text><rect x="430" y="90" width="340" height="260" rx="16" ry="16" fill="#ffffff" stroke="#1b1b1b" stroke-width="1.8"/><text x="600" y="380" font-size="23" text-anchor="middle" fill="#1b1b1b" font-weight="bold">GQA</text><circle cx="490.0" cy="150" r="13" fill="#fff" stroke="#1b1b1b" stroke-width="1.8"/><circle cx="563.3333333333334" cy="150" r="13" fill="#fff" stroke="#1b1b1b" stroke-width="1.8"/><circle cx="636.6666666666666" cy="150" r="13" fill="#fff" stroke="#1b1b1b" stroke-width="1.8"/><circle cx="710.0" cy="150" r="13" fill="#fff" stroke="#1b1b1b" stroke-width="1.8"/><text x="472" y="156" font-size="20" text-anchor="end" fill="#1b1b1b" font-weight="normal">Q</text><circle cx="490.0" cy="300" r="13" fill="#fff" stroke="#1b1b1b" stroke-width="1.8"/><circle cx="710.0" cy="300" r="13" fill="#fff" stroke="#1b1b1b" stroke-width="1.8"/><line x1="490.0" y1="163" x2="490.0" y2="287" stroke="#1b1b1b" stroke-width="1.2"/><line x1="563.3333333333334" y1="163" x2="490.0" y2="287" stroke="#1b1b1b" stroke-width="1.2"/><line x1="636.6666666666666" y1="163" x2="710.0" y2="287" stroke="#1b1b1b" stroke-width="1.2"/><line x1="710.0" y1="163" x2="710.0" y2="287" stroke="#1b1b1b" stroke-width="1.2"/><text x="472" y="306" font-size="20" text-anchor="end" fill="#1b1b1b" font-weight="normal">KV</text><rect x="820" y="90" width="340" height="260" rx="16" ry="16" fill="#ffffff" stroke="#1b1b1b" stroke-width="1.8"/><text x="990" y="380" font-size="23" text-anchor="middle" fill="#1b1b1b" font-weight="bold">MLA</text><circle cx="880.0" cy="150" r="13" fill="#fff" stroke="#1b1b1b" stroke-width="1.8"/><circle cx="953.3333333333334" cy="150" r="13" fill="#fff" stroke="#1b1b1b" stroke-width="1.8"/><circle cx="1026.6666666666667" cy="150" r="13" fill="#fff" stroke="#1b1b1b" stroke-width="1.8"/><circle cx="1100.0" cy="150" r="13" fill="#fff" stroke="#1b1b1b" stroke-width="1.8"/><text x="862" y="156" font-size="20" text-anchor="end" fill="#1b1b1b" font-weight="normal">Q</text><rect x="940" y="230" width="100" height="34" rx="8" ry="8" fill="#f4ddc6" stroke="#7a6a58" stroke-width="1.6"/><text x="990" y="253" font-size="16" text-anchor="middle" fill="#1b1b1b" font-weight="normal">latent</text><line x1="880.0" y1="163" x2="990" y2="230" stroke="#1b1b1b" stroke-width="1.2"/><line x1="953.3333333333334" y1="163" x2="990" y2="230" stroke="#1b1b1b" stroke-width="1.2"/><line x1="1026.6666666666667" y1="163" x2="990" y2="230" stroke="#1b1b1b" stroke-width="1.2"/><line x1="1100.0" y1="163" x2="990" y2="230" stroke="#1b1b1b" stroke-width="1.2"/><circle cx="930" cy="300" r="13" fill="#fff" stroke="#1b1b1b" stroke-width="1.8"/><line x1="990" y1="264" x2="930" y2="287" stroke="#1b1b1b" stroke-width="1.2"/><circle cx="1050" cy="300" r="13" fill="#fff" stroke="#1b1b1b" stroke-width="1.8"/><line x1="990" y1="264" x2="1050" y2="287" stroke="#1b1b1b" stroke-width="1.2"/><text x="862" y="306" font-size="20" text-anchor="end" fill="#1b1b1b" font-weight="normal">KV</text></svg>