<svg xmlns="http://www.w3.org/2000/svg" viewBox="0 0 1080 430" font-family="'Times New Roman', Georgia, serif"><rect x="0" y="0" width="1080" height="430" fill="#ffffff"/><defs><marker id="arw" markerWidth="11" markerHeight="11" refX="8.5" refY="5" orient="auto" markerUnits="userSpaceOnUse"><path d="M1,1 L9,5 L1,9 Z" fill="#1b1b1b"/></marker></defs><rect x="70" y="34" width="30" height="22" rx="7" ry="7" fill="#f4ddc6" stroke="#7a6a58" stroke-width="1.8"/><text x="110" y="51" font-size="21" text-anchor="start" fill="#1b1b1b" font-weight="normal">Module</text><rect x="188" y="34" width="30" height="22" rx="7" ry="7" fill="#ededed" stroke="#bdbdbd" stroke-width="1.8"/><text x="228" y="51" font-size="21" text-anchor="start" fill="#1b1b1b" font-weight="normal">Generated Text</text><rect x="394" y="34" width="30" height="22" rx="7" ry="7" fill="#dde4ee" stroke="#92a1b6" stroke-width="1.8"/><text x="434" y="51" font-size="21" text-anchor="start" fill="#1b1b1b" font-weight="normal">Provided Text</text><rect x="70" y="120" width="230" height="110" rx="16" ry="16" fill="#dde4ee" stroke="#92a1b6" stroke-width="2.0"/><rect x="110" y="135" width="52" height="64" rx="6" ry="6" fill="#ffffff" stroke="#1b1b1b" stroke-width="1.8"/><rect x="100" y="145" width="52" height="64" rx="6" ry="6" fill="#ffffff" stroke="#1b1b1b" stroke-width="1.8"/><rect x="90" y="155" width="52" height="64" rx="6" ry="6" fill="#ffffff" stroke="#1b1b1b" stroke-width="1.8"/><line x1="110" y1="159" x2="142" y2="159" stroke="#1b1b1b" stroke-width="1.4"/><line x1="110" y1="173" x2="142" y2="173" stroke="#1b1b1b" stroke-width="1.4"/><line x1="110" y1="187" x2="142" y2="187" stroke="#1b1b1b" stroke-width="1.4"/><line x1="110" y1="201" x2="142" y2="201" stroke="#1b1b1b" stroke-width="1.4"/><text x="210" y="168" font-size="21" text-anchor="start" fill="#1b1b1b" font-weight="normal">Domain</text><text x="210" y="194" font-size="21" text-anchor="start" fill="#1b1b1b" font-weight="normal">corpus</text><rect x="70" y="270" width="230" height="64" rx="14" ry="14" fill="#dde4ee" stroke="#92a1b6" stroke-width="2.0"/><text x="185.0" y="308.46" font-size="19" text-anchor="middle" fill="#1b1b1b" font-weight="normal">general replay</text><rect x="420" y="150" width="190" height="170" rx="16" ry="16" fill="#f4ddc6" stroke="#7a6a58" stroke-width="1.8"/><line x1="473.0" y1="197.0" x2="515.0" y2="184.0" stroke="#1b1b1b" stroke-width="1.1" opacity="0.85"/><line x1="473.0" y1="197.0" x2="515.0" y2="210.0" stroke="#1b1b1b" stroke-width="1.1" opacity="0.85"/><line x1="473.0" y1="197.0" x2="515.0" y2="236.0" stroke="#1b1b1b" stroke-width="1.1" opacity="0.85"/><line x1="473.0" y1="197.0" x2="515.0" y2="262.0" stroke="#1b1b1b" stroke-width="1.1" opacity="0.85"/><line x1="473.0" y1="223.0" x2="515.0" y2="184.0" stroke="#1b1b1b" stroke-width="1.1" opacity="0.85"/><line x1="473.0" y1="223.0" x2="515.0" y2="210.0" stroke="#1b1b1b" stroke-width="1.1" opacity="0.85"/><line x1="473.0" y1="223.0" x2="515.0" y2="236.0" stroke="#1b1b1b" stroke-width="1.1" opacity="0.85"/><line x1="473.0" y1="223.0" x2="515.0" y2="262.0" stroke="#1b1b1b" stroke-width="1.1" opacity="0.85"/><line x1="473.0" y1="249.0" x2="515.0" y2="184.0" stroke="#1b1b1b" stroke-width="1.1" opacity="0.85"/><line x1="473.0" y1="249.0" x2="515.0" y2="210.0" stroke="#1b1b1b" stroke-width="1.1" opacity="0.85"/><line x1="473.0" y1="249.0" x2="515.0" y2="236.0" stroke="#1b1b1b" stroke-width="1.1" opacity="0.85"/><line x1="473.0" y1="249.0" x2="515.0" y2="262.0" stroke="#1b1b1b" stroke-width="1.1" opacity="0.85"/><line x1="515.0" y1="184.0" x2="557.0" y2="197.0" stroke="#1b1b1b" stroke-width="1.1" opacity="0.85"/><line x1="515.0" y1="184.0" x2="557.0" y2="223.0" stroke="#1b1b1b" stroke-width="1.1" opacity="0.85"/><line x1="515.0" y1="184.0" x2="557.0" y2="249.0" stroke="#1b1b1b" stroke-width="1.1" opacity="0.85"/><line x1="515.0" y1="210.0" x2="557.0" y2="197.0" stroke="#1b1b1b" stroke-width="1.1" opacity="0.85"/><line x1="515.0" y1="210.0" x2="557.0" y2="223.0" stroke="#1b1b1b" stroke-width="1.1" opacity="0.85"/><line x1="515.0" y1="210.0" x2="557.0" y2="249.0" stroke="#1b1b1b" stroke-width="1.1" opacity="0.85"/><line x1="515.0" y1="236.0" x2="557.0" y2="197.0" stroke="#1b1b1b" stroke-width="1.1" opacity="0.85"/><line x1="515.0" y1="236.0" x2="557.0" y2="223.0" stroke="#1b1b1b" stroke-width="1.1" opacity="0.85"/><line x1="515.0" y1="236.0" x2="557.0" y2="249.0" stroke="#1b1b1b" stroke-width="1.1" opacity="0.85"/><line x1="515.0" y1="262.0" x2="557.0" y2="197.0" stroke="#1b1b1b" stroke-width="1.1" opacity="0.85"/><line x1="515.0" y1="262.0" x2="557.0" y2="223.0" stroke="#1b1b1b" stroke-width="1.1" opacity="0.85"/><line x1="515.0" y1="262.0" x2="557.0" y2="249.0" stroke="#1b1b1b" stroke-width="1.1" opacity="0.85"/><circle cx="473.0" cy="197.0" r="7.5" fill="#ffffff" stroke="#1b1b1b" stroke-width="1.5"/><circle cx="473.0" cy="223.0" r="7.5" fill="#ffffff" stroke="#1b1b1b" stroke-width="1.5"/><circle cx="473.0" cy="249.0" r="7.5" fill="#ffffff" stroke="#1b1b1b" stroke-width="1.5"/><circle cx="515.0" cy="184.0" r="7.5" fill="#ffffff" stroke="#1b1b1b" stroke-width="1.5"/><circle cx="515.0" cy="210.0" r="7.5" fill="#ffffff" stroke="#1b1b1b" stroke-width="1.5"/><circle cx="515.0" cy="236.0" r="7.5" fill="#ffffff" stroke="#1b1b1b" stroke-width="1.5"/><circle cx="515.0" cy="262.0" r="7.5" fill="#ffffff" stroke="#1b1b1b" stroke-width="1.5"/><circle cx="557.0" cy="197.0" r="7.5" fill="#ffffff" stroke="#1b1b1b" stroke-width="1.5"/><circle cx="557.0" cy="223.0" r="7.5" fill="#ffffff" stroke="#1b1b1b" stroke-width="1.5"/><circle cx="557.0" cy="249.0" r="7.5" fill="#ffffff" stroke="#1b1b1b" stroke-width="1.5"/><text x="515.0" y="302" font-size="23" text-anchor="middle" fill="#1b1b1b" font-weight="normal">LLM</text><text x="515" y="132" font-size="18" text-anchor="middle" fill="#666" font-weight="normal" font-style="italic">continue next-token</text><polyline points="300,175 380,175 380,220 420,220" fill="none" stroke="#1b1b1b" stroke-width="2.0" stroke-linejoin="round" stroke-linecap="round" marker-end="url(#arw)"/><polyline points="300,302 380,302 380,270 420,270" fill="none" stroke="#1b1b1b" stroke-width="2.0" stroke-linejoin="round" stroke-linecap="round" marker-end="url(#arw)"/><rect x="720" y="195" width="250" height="80" rx="14" ry="14" fill="#f4ddc6" stroke="#7a6a58" stroke-width="1.8"/><text x="845.0" y="241.8" font-size="20" text-anchor="middle" fill="#1b1b1b" font-weight="normal">domain-adapted model</text><line x1="610" y1="235" x2="718" y2="235" stroke="#1b1b1b" stroke-width="2.0" marker-end="url(#arw)"/><text x="540.0" y="392" font-size="20" text-anchor="middle" fill="#666">same next-token objective, on domain data  (+ replay to avoid forgetting)</text></svg>