<svg xmlns="http://www.w3.org/2000/svg" viewBox="0 0 1020 560" font-family="'Times New Roman', Georgia, serif"><rect x="0" y="0" width="1020" height="560" fill="#ffffff"/><defs><marker id="arw" markerWidth="11" markerHeight="11" refX="8.5" refY="5" orient="auto" markerUnits="userSpaceOnUse"><path d="M1,1 L9,5 L1,9 Z" fill="#1b1b1b"/></marker></defs><rect x="50" y="222" width="280" height="116" rx="18" ry="18" fill="#dde4ee" stroke="#92a1b6" stroke-width="2.0"/><text x="190" y="272" font-size="21" text-anchor="middle" fill="#1b1b1b" font-weight="normal">What feedback</text><text x="190" y="304" font-size="21" text-anchor="middle" fill="#1b1b1b" font-weight="normal">do you have?</text><line x1="330" y1="280" x2="400" y2="280" stroke="#1b1b1b" stroke-width="2.0"/><line x1="400" y1="82" x2="400" y2="442" stroke="#1b1b1b" stroke-width="2"/><rect x="460" y="52" width="470" height="60" rx="14" ry="14" fill="#ffffff" stroke="#1b1b1b" stroke-width="1.8"/><text x="486" y="88" font-size="20" text-anchor="start" fill="#666" font-weight="normal" font-style="italic">raw corpus</text><text x="720" y="89" font-size="22" text-anchor="middle" fill="#1b1b1b">→</text><rect x="752" y="64" width="162" height="36" rx="10" ry="10" fill="#f4ddc6" stroke="#7a6a58" stroke-width="1.6"/><text x="833" y="89" font-size="19" text-anchor="middle" fill="#1b1b1b" font-weight="normal">CPT</text><line x1="400" y1="82" x2="460" y2="82" stroke="#1b1b1b" stroke-width="2.0" marker-end="url(#arw)"/><rect x="460" y="124" width="470" height="60" rx="14" ry="14" fill="#ffffff" stroke="#1b1b1b" stroke-width="1.8"/><text x="486" y="160" font-size="20" text-anchor="start" fill="#666" font-weight="normal" font-style="italic">demonstrations</text><text x="720" y="161" font-size="22" text-anchor="middle" fill="#1b1b1b">→</text><rect x="752" y="136" width="162" height="36" rx="10" ry="10" fill="#f4ddc6" stroke="#7a6a58" stroke-width="1.6"/><text x="833" y="161" font-size="19" text-anchor="middle" fill="#1b1b1b" font-weight="normal">SFT</text><line x1="400" y1="154" x2="460" y2="154" stroke="#1b1b1b" stroke-width="2.0" marker-end="url(#arw)"/><rect x="460" y="196" width="470" height="60" rx="14" ry="14" fill="#ffffff" stroke="#1b1b1b" stroke-width="1.8"/><text x="486" y="232" font-size="20" text-anchor="start" fill="#666" font-weight="normal" font-style="italic">preference pairs</text><text x="720" y="233" font-size="22" text-anchor="middle" fill="#1b1b1b">→</text><rect x="752" y="208" width="162" height="36" rx="10" ry="10" fill="#f4ddc6" stroke="#7a6a58" stroke-width="1.6"/><text x="833" y="233" font-size="19" text-anchor="middle" fill="#1b1b1b" font-weight="normal">DPO</text><line x1="400" y1="226" x2="460" y2="226" stroke="#1b1b1b" stroke-width="2.0" marker-end="url(#arw)"/><rect x="460" y="268" width="470" height="60" rx="14" ry="14" fill="#ffffff" stroke="#1b1b1b" stroke-width="1.8"/><text x="486" y="304" font-size="20" text-anchor="start" fill="#666" font-weight="normal" font-style="italic">a verifier</text><text x="720" y="305" font-size="22" text-anchor="middle" fill="#1b1b1b">→</text><rect x="752" y="280" width="162" height="36" rx="10" ry="10" fill="#f4ddc6" stroke="#7a6a58" stroke-width="1.6"/><text x="833" y="305" font-size="19" text-anchor="middle" fill="#1b1b1b" font-weight="normal">RLVR · GRPO</text><line x1="400" y1="298" x2="460" y2="298" stroke="#1b1b1b" stroke-width="2.0" marker-end="url(#arw)"/><rect x="460" y="340" width="470" height="60" rx="14" ry="14" fill="#ffffff" stroke="#1b1b1b" stroke-width="1.8"/><text x="486" y="376" font-size="20" text-anchor="start" fill="#666" font-weight="normal" font-style="italic">an environment</text><text x="720" y="377" font-size="22" text-anchor="middle" fill="#1b1b1b">→</text><rect x="752" y="352" width="162" height="36" rx="10" ry="10" fill="#f4ddc6" stroke="#7a6a58" stroke-width="1.6"/><text x="833" y="377" font-size="19" text-anchor="middle" fill="#1b1b1b" font-weight="normal">Agentic RL</text><line x1="400" y1="370" x2="460" y2="370" stroke="#1b1b1b" stroke-width="2.0" marker-end="url(#arw)"/><rect x="460" y="412" width="470" height="60" rx="14" ry="14" fill="#ffffff" stroke="#1b1b1b" stroke-width="1.8"/><text x="486" y="448" font-size="20" text-anchor="start" fill="#666" font-weight="normal" font-style="italic">a teacher model</text><text x="720" y="449" font-size="22" text-anchor="middle" fill="#1b1b1b">→</text><rect x="752" y="424" width="162" height="36" rx="10" ry="10" fill="#f4ddc6" stroke="#7a6a58" stroke-width="1.6"/><text x="833" y="449" font-size="19" text-anchor="middle" fill="#1b1b1b" font-weight="normal">Distill</text><line x1="400" y1="442" x2="460" y2="442" stroke="#1b1b1b" stroke-width="2.0" marker-end="url(#arw)"/></svg>