<svg xmlns="http://www.w3.org/2000/svg" viewBox="0 0 1200 500" font-family="'Times New Roman', Georgia, serif"><rect x="0" y="0" width="1200" height="500" fill="#ffffff"/><defs><marker id="arw" markerWidth="11" markerHeight="11" refX="8.5" refY="5" orient="auto" markerUnits="userSpaceOnUse"><path d="M1,1 L9,5 L1,9 Z" fill="#1b1b1b"/></marker></defs><rect x="70" y="30" width="30" height="22" rx="7" ry="7" fill="#f4ddc6" stroke="#7a6a58" stroke-width="1.8"/><text x="110" y="47" font-size="21" text-anchor="start" fill="#1b1b1b" font-weight="normal">Module</text><rect x="188" y="30" width="30" height="22" rx="7" ry="7" fill="#ededed" stroke="#bdbdbd" stroke-width="1.8"/><text x="228" y="47" font-size="21" text-anchor="start" fill="#1b1b1b" font-weight="normal">Generated Text</text><rect x="394" y="30" width="30" height="22" rx="7" ry="7" fill="#dde4ee" stroke="#92a1b6" stroke-width="1.8"/><text x="434" y="47" font-size="21" text-anchor="start" fill="#1b1b1b" font-weight="normal">Provided Text</text><rect x="60" y="200" width="180" height="130" rx="16" ry="16" fill="#f4ddc6" stroke="#7a6a58" stroke-width="1.8"/><line x1="108" y1="222.0" x2="150" y2="209.0" stroke="#1b1b1b" stroke-width="1.1" opacity="0.85"/><line x1="108" y1="222.0" x2="150" y2="235.0" stroke="#1b1b1b" stroke-width="1.1" opacity="0.85"/><line x1="108" y1="222.0" x2="150" y2="261.0" stroke="#1b1b1b" stroke-width="1.1" opacity="0.85"/><line x1="108" y1="222.0" x2="150" y2="287.0" stroke="#1b1b1b" stroke-width="1.1" opacity="0.85"/><line x1="108" y1="248.0" x2="150" y2="209.0" stroke="#1b1b1b" stroke-width="1.1" opacity="0.85"/><line x1="108" y1="248.0" x2="150" y2="235.0" stroke="#1b1b1b" stroke-width="1.1" opacity="0.85"/><line x1="108" y1="248.0" x2="150" y2="261.0" stroke="#1b1b1b" stroke-width="1.1" opacity="0.85"/><line x1="108" y1="248.0" x2="150" y2="287.0" stroke="#1b1b1b" stroke-width="1.1" opacity="0.85"/><line x1="108" y1="274.0" x2="150" y2="209.0" stroke="#1b1b1b" stroke-width="1.1" opacity="0.85"/><line x1="108" y1="274.0" x2="150" y2="235.0" stroke="#1b1b1b" stroke-width="1.1" opacity="0.85"/><line x1="108" y1="274.0" x2="150" y2="261.0" stroke="#1b1b1b" stroke-width="1.1" opacity="0.85"/><line x1="108" y1="274.0" x2="150" y2="287.0" stroke="#1b1b1b" stroke-width="1.1" opacity="0.85"/><line x1="150" y1="209.0" x2="192" y2="222.0" stroke="#1b1b1b" stroke-width="1.1" opacity="0.85"/><line x1="150" y1="209.0" x2="192" y2="248.0" stroke="#1b1b1b" stroke-width="1.1" opacity="0.85"/><line x1="150" y1="209.0" x2="192" y2="274.0" stroke="#1b1b1b" stroke-width="1.1" opacity="0.85"/><line x1="150" y1="235.0" x2="192" y2="222.0" stroke="#1b1b1b" stroke-width="1.1" opacity="0.85"/><line x1="150" y1="235.0" x2="192" y2="248.0" stroke="#1b1b1b" stroke-width="1.1" opacity="0.85"/><line x1="150" y1="235.0" x2="192" y2="274.0" stroke="#1b1b1b" stroke-width="1.1" opacity="0.85"/><line x1="150" y1="261.0" x2="192" y2="222.0" stroke="#1b1b1b" stroke-width="1.1" opacity="0.85"/><line x1="150" y1="261.0" x2="192" y2="248.0" stroke="#1b1b1b" stroke-width="1.1" opacity="0.85"/><line x1="150" y1="261.0" x2="192" y2="274.0" stroke="#1b1b1b" stroke-width="1.1" opacity="0.85"/><line x1="150" y1="287.0" x2="192" y2="222.0" stroke="#1b1b1b" stroke-width="1.1" opacity="0.85"/><line x1="150" y1="287.0" x2="192" y2="248.0" stroke="#1b1b1b" stroke-width="1.1" opacity="0.85"/><line x1="150" y1="287.0" x2="192" y2="274.0" stroke="#1b1b1b" stroke-width="1.1" opacity="0.85"/><circle cx="108" cy="222.0" r="7.5" fill="#ffffff" stroke="#1b1b1b" stroke-width="1.5"/><circle cx="108" cy="248.0" r="7.5" fill="#ffffff" stroke="#1b1b1b" stroke-width="1.5"/><circle cx="108" cy="274.0" r="7.5" fill="#ffffff" stroke="#1b1b1b" stroke-width="1.5"/><circle cx="150" cy="209.0" r="7.5" fill="#ffffff" stroke="#1b1b1b" stroke-width="1.5"/><circle cx="150" cy="235.0" r="7.5" fill="#ffffff" stroke="#1b1b1b" stroke-width="1.5"/><circle cx="150" cy="261.0" r="7.5" fill="#ffffff" stroke="#1b1b1b" stroke-width="1.5"/><circle cx="150" cy="287.0" r="7.5" fill="#ffffff" stroke="#1b1b1b" stroke-width="1.5"/><circle cx="192" cy="222.0" r="7.5" fill="#ffffff" stroke="#1b1b1b" stroke-width="1.5"/><circle cx="192" cy="248.0" r="7.5" fill="#ffffff" stroke="#1b1b1b" stroke-width="1.5"/><circle cx="192" cy="274.0" r="7.5" fill="#ffffff" stroke="#1b1b1b" stroke-width="1.5"/><text x="150" y="312" font-size="22" text-anchor="middle" fill="#1b1b1b" font-weight="normal">Proposer</text><text x="150" y="355" font-size="18" text-anchor="middle" fill="#666" font-weight="normal" font-style="italic">raise difficulty</text><rect x="360" y="200" width="180" height="130" rx="16" ry="16" fill="#f4ddc6" stroke="#7a6a58" stroke-width="1.8"/><line x1="408" y1="222.0" x2="450" y2="209.0" stroke="#1b1b1b" stroke-width="1.1" opacity="0.85"/><line x1="408" y1="222.0" x2="450" y2="235.0" stroke="#1b1b1b" stroke-width="1.1" opacity="0.85"/><line x1="408" y1="222.0" x2="450" y2="261.0" stroke="#1b1b1b" stroke-width="1.1" opacity="0.85"/><line x1="408" y1="222.0" x2="450" y2="287.0" stroke="#1b1b1b" stroke-width="1.1" opacity="0.85"/><line x1="408" y1="248.0" x2="450" y2="209.0" stroke="#1b1b1b" stroke-width="1.1" opacity="0.85"/><line x1="408" y1="248.0" x2="450" y2="235.0" stroke="#1b1b1b" stroke-width="1.1" opacity="0.85"/><line x1="408" y1="248.0" x2="450" y2="261.0" stroke="#1b1b1b" stroke-width="1.1" opacity="0.85"/><line x1="408" y1="248.0" x2="450" y2="287.0" stroke="#1b1b1b" stroke-width="1.1" opacity="0.85"/><line x1="408" y1="274.0" x2="450" y2="209.0" stroke="#1b1b1b" stroke-width="1.1" opacity="0.85"/><line x1="408" y1="274.0" x2="450" y2="235.0" stroke="#1b1b1b" stroke-width="1.1" opacity="0.85"/><line x1="408" y1="274.0" x2="450" y2="261.0" stroke="#1b1b1b" stroke-width="1.1" opacity="0.85"/><line x1="408" y1="274.0" x2="450" y2="287.0" stroke="#1b1b1b" stroke-width="1.1" opacity="0.85"/><line x1="450" y1="209.0" x2="492" y2="222.0" stroke="#1b1b1b" stroke-width="1.1" opacity="0.85"/><line x1="450" y1="209.0" x2="492" y2="248.0" stroke="#1b1b1b" stroke-width="1.1" opacity="0.85"/><line x1="450" y1="209.0" x2="492" y2="274.0" stroke="#1b1b1b" stroke-width="1.1" opacity="0.85"/><line x1="450" y1="235.0" x2="492" y2="222.0" stroke="#1b1b1b" stroke-width="1.1" opacity="0.85"/><line x1="450" y1="235.0" x2="492" y2="248.0" stroke="#1b1b1b" stroke-width="1.1" opacity="0.85"/><line x1="450" y1="235.0" x2="492" y2="274.0" stroke="#1b1b1b" stroke-width="1.1" opacity="0.85"/><line x1="450" y1="261.0" x2="492" y2="222.0" stroke="#1b1b1b" stroke-width="1.1" opacity="0.85"/><line x1="450" y1="261.0" x2="492" y2="248.0" stroke="#1b1b1b" stroke-width="1.1" opacity="0.85"/><line x1="450" y1="261.0" x2="492" y2="274.0" stroke="#1b1b1b" stroke-width="1.1" opacity="0.85"/><line x1="450" y1="287.0" x2="492" y2="222.0" stroke="#1b1b1b" stroke-width="1.1" opacity="0.85"/><line x1="450" y1="287.0" x2="492" y2="248.0" stroke="#1b1b1b" stroke-width="1.1" opacity="0.85"/><line x1="450" y1="287.0" x2="492" y2="274.0" stroke="#1b1b1b" stroke-width="1.1" opacity="0.85"/><circle cx="408" cy="222.0" r="7.5" fill="#ffffff" stroke="#1b1b1b" stroke-width="1.5"/><circle cx="408" cy="248.0" r="7.5" fill="#ffffff" stroke="#1b1b1b" stroke-width="1.5"/><circle cx="408" cy="274.0" r="7.5" fill="#ffffff" stroke="#1b1b1b" stroke-width="1.5"/><circle cx="450" cy="209.0" r="7.5" fill="#ffffff" stroke="#1b1b1b" stroke-width="1.5"/><circle cx="450" cy="235.0" r="7.5" fill="#ffffff" stroke="#1b1b1b" stroke-width="1.5"/><circle cx="450" cy="261.0" r="7.5" fill="#ffffff" stroke="#1b1b1b" stroke-width="1.5"/><circle cx="450" cy="287.0" r="7.5" fill="#ffffff" stroke="#1b1b1b" stroke-width="1.5"/><circle cx="492" cy="222.0" r="7.5" fill="#ffffff" stroke="#1b1b1b" stroke-width="1.5"/><circle cx="492" cy="248.0" r="7.5" fill="#ffffff" stroke="#1b1b1b" stroke-width="1.5"/><circle cx="492" cy="274.0" r="7.5" fill="#ffffff" stroke="#1b1b1b" stroke-width="1.5"/><text x="450" y="312" font-size="22" text-anchor="middle" fill="#1b1b1b" font-weight="normal">Solver</text><text x="450" y="355" font-size="18" text-anchor="middle" fill="#666" font-weight="normal" font-style="italic">k candidate traces</text><rect x="660" y="200" width="180" height="130" rx="16" ry="16" fill="#f4ddc6" stroke="#7a6a58" stroke-width="1.8"/><path d="M704.0,251.0 l12,14 l24,-30" fill="none" stroke="#1b1b1b" stroke-width="3.4" stroke-linecap="round" stroke-linejoin="round"/><path d="M764.0,235.0 l30,30 M794.0,235.0 l-30,30" fill="none" stroke="#1b1b1b" stroke-width="3.0" stroke-linecap="round"/><text x="750.0" y="312" font-size="23" text-anchor="middle" fill="#1b1b1b" font-weight="normal">Verifier</text><text x="750" y="355" font-size="18" text-anchor="middle" fill="#666" font-weight="normal" font-style="italic">keep / discard</text><rect x="960" y="200" width="180" height="130" rx="16" ry="16" fill="#f4ddc6" stroke="#7a6a58" stroke-width="1.8"/><line x1="1008" y1="222.0" x2="1050" y2="209.0" stroke="#1b1b1b" stroke-width="1.1" opacity="0.85"/><line x1="1008" y1="222.0" x2="1050" y2="235.0" stroke="#1b1b1b" stroke-width="1.1" opacity="0.85"/><line x1="1008" y1="222.0" x2="1050" y2="261.0" stroke="#1b1b1b" stroke-width="1.1" opacity="0.85"/><line x1="1008" y1="222.0" x2="1050" y2="287.0" stroke="#1b1b1b" stroke-width="1.1" opacity="0.85"/><line x1="1008" y1="248.0" x2="1050" y2="209.0" stroke="#1b1b1b" stroke-width="1.1" opacity="0.85"/><line x1="1008" y1="248.0" x2="1050" y2="235.0" stroke="#1b1b1b" stroke-width="1.1" opacity="0.85"/><line x1="1008" y1="248.0" x2="1050" y2="261.0" stroke="#1b1b1b" stroke-width="1.1" opacity="0.85"/><line x1="1008" y1="248.0" x2="1050" y2="287.0" stroke="#1b1b1b" stroke-width="1.1" opacity="0.85"/><line x1="1008" y1="274.0" x2="1050" y2="209.0" stroke="#1b1b1b" stroke-width="1.1" opacity="0.85"/><line x1="1008" y1="274.0" x2="1050" y2="235.0" stroke="#1b1b1b" stroke-width="1.1" opacity="0.85"/><line x1="1008" y1="274.0" x2="1050" y2="261.0" stroke="#1b1b1b" stroke-width="1.1" opacity="0.85"/><line x1="1008" y1="274.0" x2="1050" y2="287.0" stroke="#1b1b1b" stroke-width="1.1" opacity="0.85"/><line x1="1050" y1="209.0" x2="1092" y2="222.0" stroke="#1b1b1b" stroke-width="1.1" opacity="0.85"/><line x1="1050" y1="209.0" x2="1092" y2="248.0" stroke="#1b1b1b" stroke-width="1.1" opacity="0.85"/><line x1="1050" y1="209.0" x2="1092" y2="274.0" stroke="#1b1b1b" stroke-width="1.1" opacity="0.85"/><line x1="1050" y1="235.0" x2="1092" y2="222.0" stroke="#1b1b1b" stroke-width="1.1" opacity="0.85"/><line x1="1050" y1="235.0" x2="1092" y2="248.0" stroke="#1b1b1b" stroke-width="1.1" opacity="0.85"/><line x1="1050" y1="235.0" x2="1092" y2="274.0" stroke="#1b1b1b" stroke-width="1.1" opacity="0.85"/><line x1="1050" y1="261.0" x2="1092" y2="222.0" stroke="#1b1b1b" stroke-width="1.1" opacity="0.85"/><line x1="1050" y1="261.0" x2="1092" y2="248.0" stroke="#1b1b1b" stroke-width="1.1" opacity="0.85"/><line x1="1050" y1="261.0" x2="1092" y2="274.0" stroke="#1b1b1b" stroke-width="1.1" opacity="0.85"/><line x1="1050" y1="287.0" x2="1092" y2="222.0" stroke="#1b1b1b" stroke-width="1.1" opacity="0.85"/><line x1="1050" y1="287.0" x2="1092" y2="248.0" stroke="#1b1b1b" stroke-width="1.1" opacity="0.85"/><line x1="1050" y1="287.0" x2="1092" y2="274.0" stroke="#1b1b1b" stroke-width="1.1" opacity="0.85"/><circle cx="1008" cy="222.0" r="7.5" fill="#ffffff" stroke="#1b1b1b" stroke-width="1.5"/><circle cx="1008" cy="248.0" r="7.5" fill="#ffffff" stroke="#1b1b1b" stroke-width="1.5"/><circle cx="1008" cy="274.0" r="7.5" fill="#ffffff" stroke="#1b1b1b" stroke-width="1.5"/><circle cx="1050" cy="209.0" r="7.5" fill="#ffffff" stroke="#1b1b1b" stroke-width="1.5"/><circle cx="1050" cy="235.0" r="7.5" fill="#ffffff" stroke="#1b1b1b" stroke-width="1.5"/><circle cx="1050" cy="261.0" r="7.5" fill="#ffffff" stroke="#1b1b1b" stroke-width="1.5"/><circle cx="1050" cy="287.0" r="7.5" fill="#ffffff" stroke="#1b1b1b" stroke-width="1.5"/><circle cx="1092" cy="222.0" r="7.5" fill="#ffffff" stroke="#1b1b1b" stroke-width="1.5"/><circle cx="1092" cy="248.0" r="7.5" fill="#ffffff" stroke="#1b1b1b" stroke-width="1.5"/><circle cx="1092" cy="274.0" r="7.5" fill="#ffffff" stroke="#1b1b1b" stroke-width="1.5"/><text x="1050" y="312" font-size="22" text-anchor="middle" fill="#1b1b1b" font-weight="normal">Student</text><text x="1050" y="355" font-size="18" text-anchor="middle" fill="#666" font-weight="normal" font-style="italic">train (SFT/KD)</text><line x1="240" y1="265" x2="360" y2="265" stroke="#1b1b1b" stroke-width="2.0" marker-end="url(#arw)"/><line x1="540" y1="265" x2="660" y2="265" stroke="#1b1b1b" stroke-width="2.0" marker-end="url(#arw)"/><line x1="840" y1="265" x2="960" y2="265" stroke="#1b1b1b" stroke-width="2.0" marker-end="url(#arw)"/><rect x="360" y="84" width="180" height="66" rx="14" ry="14" fill="#f4ddc6" stroke="#7a6a58" stroke-width="1.8"/><text x="450.0" y="124.48" font-size="22" text-anchor="middle" fill="#1b1b1b" font-weight="normal">Teacher</text><polyline points="450,150 450,200" fill="none" stroke="#1b1b1b" stroke-width="2.0" stroke-linejoin="round" stroke-linecap="round" marker-end="url(#arw)"/><polyline points="1050,330 1050,440 150,440 150,330" fill="none" stroke="#1b1b1b" stroke-width="2.0" stroke-linejoin="round" stroke-linecap="round" marker-end="url(#arw)"/><text x="600" y="432" font-size="18" text-anchor="middle" fill="#666" font-weight="normal" font-style="italic">stronger model → harder tasks  (flywheel)</text></svg>