<svg xmlns="http://www.w3.org/2000/svg" viewBox="0 0 1200 470" font-family="'Times New Roman', Georgia, serif"><rect x="0" y="0" width="1200" height="470" fill="#ffffff"/><defs><marker id="arw" markerWidth="11" markerHeight="11" refX="8.5" refY="5" orient="auto" markerUnits="userSpaceOnUse"><path d="M1,1 L9,5 L1,9 Z" fill="#1b1b1b"/></marker></defs><rect x="70" y="30" width="30" height="22" rx="7" ry="7" fill="#f4ddc6" stroke="#7a6a58" stroke-width="1.8"/><text x="110" y="47" font-size="21" text-anchor="start" fill="#1b1b1b" font-weight="normal">Module</text><rect x="188" y="30" width="30" height="22" rx="7" ry="7" fill="#ededed" stroke="#bdbdbd" stroke-width="1.8"/><text x="228" y="47" font-size="21" text-anchor="start" fill="#1b1b1b" font-weight="normal">Generated Text</text><rect x="394" y="30" width="30" height="22" rx="7" ry="7" fill="#dde4ee" stroke="#92a1b6" stroke-width="1.8"/><text x="434" y="47" font-size="21" text-anchor="start" fill="#1b1b1b" font-weight="normal">Provided Text</text><rect x="60" y="180" width="270" height="120" rx="16" ry="16" fill="#dde4ee" stroke="#92a1b6" stroke-width="2.0"/><text x="195" y="222" font-size="21" text-anchor="middle" fill="#1b1b1b" font-weight="normal">Prompt  x</text><text x="195" y="258" font-size="19" text-anchor="middle" fill="#1b1b1b">chosen y<tspan baseline-shift="-26%" font-size="12">w</tspan> ,  rejected y<tspan baseline-shift="-26%" font-size="12">l</tspan></text><rect x="420" y="110" width="190" height="120" rx="16" ry="16" fill="#f4ddc6" stroke="#7a6a58" stroke-width="1.8"/><line x1="473" y1="130.0" x2="515" y2="117.0" stroke="#1b1b1b" stroke-width="1.1" opacity="0.85"/><line x1="473" y1="130.0" x2="515" y2="143.0" stroke="#1b1b1b" stroke-width="1.1" opacity="0.85"/><line x1="473" y1="130.0" x2="515" y2="169.0" stroke="#1b1b1b" stroke-width="1.1" opacity="0.85"/><line x1="473" y1="130.0" x2="515" y2="195.0" stroke="#1b1b1b" stroke-width="1.1" opacity="0.85"/><line x1="473" y1="156.0" x2="515" y2="117.0" stroke="#1b1b1b" stroke-width="1.1" opacity="0.85"/><line x1="473" y1="156.0" x2="515" y2="143.0" stroke="#1b1b1b" stroke-width="1.1" opacity="0.85"/><line x1="473" y1="156.0" x2="515" y2="169.0" stroke="#1b1b1b" stroke-width="1.1" opacity="0.85"/><line x1="473" y1="156.0" x2="515" y2="195.0" stroke="#1b1b1b" stroke-width="1.1" opacity="0.85"/><line x1="473" y1="182.0" x2="515" y2="117.0" stroke="#1b1b1b" stroke-width="1.1" opacity="0.85"/><line x1="473" y1="182.0" x2="515" y2="143.0" stroke="#1b1b1b" stroke-width="1.1" opacity="0.85"/><line x1="473" y1="182.0" x2="515" y2="169.0" stroke="#1b1b1b" stroke-width="1.1" opacity="0.85"/><line x1="473" y1="182.0" x2="515" y2="195.0" stroke="#1b1b1b" stroke-width="1.1" opacity="0.85"/><line x1="515" y1="117.0" x2="557" y2="130.0" stroke="#1b1b1b" stroke-width="1.1" opacity="0.85"/><line x1="515" y1="117.0" x2="557" y2="156.0" stroke="#1b1b1b" stroke-width="1.1" opacity="0.85"/><line x1="515" y1="117.0" x2="557" y2="182.0" stroke="#1b1b1b" stroke-width="1.1" opacity="0.85"/><line x1="515" y1="143.0" x2="557" y2="130.0" stroke="#1b1b1b" stroke-width="1.1" opacity="0.85"/><line x1="515" y1="143.0" x2="557" y2="156.0" stroke="#1b1b1b" stroke-width="1.1" opacity="0.85"/><line x1="515" y1="143.0" x2="557" y2="182.0" stroke="#1b1b1b" stroke-width="1.1" opacity="0.85"/><line x1="515" y1="169.0" x2="557" y2="130.0" stroke="#1b1b1b" stroke-width="1.1" opacity="0.85"/><line x1="515" y1="169.0" x2="557" y2="156.0" stroke="#1b1b1b" stroke-width="1.1" opacity="0.85"/><line x1="515" y1="169.0" x2="557" y2="182.0" stroke="#1b1b1b" stroke-width="1.1" opacity="0.85"/><line x1="515" y1="195.0" x2="557" y2="130.0" stroke="#1b1b1b" stroke-width="1.1" opacity="0.85"/><line x1="515" y1="195.0" x2="557" y2="156.0" stroke="#1b1b1b" stroke-width="1.1" opacity="0.85"/><line x1="515" y1="195.0" x2="557" y2="182.0" stroke="#1b1b1b" stroke-width="1.1" opacity="0.85"/><circle cx="473" cy="130.0" r="7.5" fill="#ffffff" stroke="#1b1b1b" stroke-width="1.5"/><circle cx="473" cy="156.0" r="7.5" fill="#ffffff" stroke="#1b1b1b" stroke-width="1.5"/><circle cx="473" cy="182.0" r="7.5" fill="#ffffff" stroke="#1b1b1b" stroke-width="1.5"/><circle cx="515" cy="117.0" r="7.5" fill="#ffffff" stroke="#1b1b1b" stroke-width="1.5"/><circle cx="515" cy="143.0" r="7.5" fill="#ffffff" stroke="#1b1b1b" stroke-width="1.5"/><circle cx="515" cy="169.0" r="7.5" fill="#ffffff" stroke="#1b1b1b" stroke-width="1.5"/><circle cx="515" cy="195.0" r="7.5" fill="#ffffff" stroke="#1b1b1b" stroke-width="1.5"/><circle cx="557" cy="130.0" r="7.5" fill="#ffffff" stroke="#1b1b1b" stroke-width="1.5"/><circle cx="557" cy="156.0" r="7.5" fill="#ffffff" stroke="#1b1b1b" stroke-width="1.5"/><circle cx="557" cy="182.0" r="7.5" fill="#ffffff" stroke="#1b1b1b" stroke-width="1.5"/><text x="515" y="214" font-size="21" text-anchor="middle" fill="#1b1b1b">Policy  π<tspan baseline-shift="-26%" font-size="14">θ</tspan></text><rect x="420" y="300" width="190" height="120" rx="16" ry="16" fill="#f4ddc6" stroke="#7a6a58" stroke-width="1.8" stroke-dasharray="7 6"/><line x1="473" y1="320.0" x2="515" y2="307.0" stroke="#1b1b1b" stroke-width="1.1" opacity="0.85"/><line x1="473" y1="320.0" x2="515" y2="333.0" stroke="#1b1b1b" stroke-width="1.1" opacity="0.85"/><line x1="473" y1="320.0" x2="515" y2="359.0" stroke="#1b1b1b" stroke-width="1.1" opacity="0.85"/><line x1="473" y1="320.0" x2="515" y2="385.0" stroke="#1b1b1b" stroke-width="1.1" opacity="0.85"/><line x1="473" y1="346.0" x2="515" y2="307.0" stroke="#1b1b1b" stroke-width="1.1" opacity="0.85"/><line x1="473" y1="346.0" x2="515" y2="333.0" stroke="#1b1b1b" stroke-width="1.1" opacity="0.85"/><line x1="473" y1="346.0" x2="515" y2="359.0" stroke="#1b1b1b" stroke-width="1.1" opacity="0.85"/><line x1="473" y1="346.0" x2="515" y2="385.0" stroke="#1b1b1b" stroke-width="1.1" opacity="0.85"/><line x1="473" y1="372.0" x2="515" y2="307.0" stroke="#1b1b1b" stroke-width="1.1" opacity="0.85"/><line x1="473" y1="372.0" x2="515" y2="333.0" stroke="#1b1b1b" stroke-width="1.1" opacity="0.85"/><line x1="473" y1="372.0" x2="515" y2="359.0" stroke="#1b1b1b" stroke-width="1.1" opacity="0.85"/><line x1="473" y1="372.0" x2="515" y2="385.0" stroke="#1b1b1b" stroke-width="1.1" opacity="0.85"/><line x1="515" y1="307.0" x2="557" y2="320.0" stroke="#1b1b1b" stroke-width="1.1" opacity="0.85"/><line x1="515" y1="307.0" x2="557" y2="346.0" stroke="#1b1b1b" stroke-width="1.1" opacity="0.85"/><line x1="515" y1="307.0" x2="557" y2="372.0" stroke="#1b1b1b" stroke-width="1.1" opacity="0.85"/><line x1="515" y1="333.0" x2="557" y2="320.0" stroke="#1b1b1b" stroke-width="1.1" opacity="0.85"/><line x1="515" y1="333.0" x2="557" y2="346.0" stroke="#1b1b1b" stroke-width="1.1" opacity="0.85"/><line x1="515" y1="333.0" x2="557" y2="372.0" stroke="#1b1b1b" stroke-width="1.1" opacity="0.85"/><line x1="515" y1="359.0" x2="557" y2="320.0" stroke="#1b1b1b" stroke-width="1.1" opacity="0.85"/><line x1="515" y1="359.0" x2="557" y2="346.0" stroke="#1b1b1b" stroke-width="1.1" opacity="0.85"/><line x1="515" y1="359.0" x2="557" y2="372.0" stroke="#1b1b1b" stroke-width="1.1" opacity="0.85"/><line x1="515" y1="385.0" x2="557" y2="320.0" stroke="#1b1b1b" stroke-width="1.1" opacity="0.85"/><line x1="515" y1="385.0" x2="557" y2="346.0" stroke="#1b1b1b" stroke-width="1.1" opacity="0.85"/><line x1="515" y1="385.0" x2="557" y2="372.0" stroke="#1b1b1b" stroke-width="1.1" opacity="0.85"/><circle cx="473" cy="320.0" r="7.5" fill="#ffffff" stroke="#1b1b1b" stroke-width="1.5"/><circle cx="473" cy="346.0" r="7.5" fill="#ffffff" stroke="#1b1b1b" stroke-width="1.5"/><circle cx="473" cy="372.0" r="7.5" fill="#ffffff" stroke="#1b1b1b" stroke-width="1.5"/><circle cx="515" cy="307.0" r="7.5" fill="#ffffff" stroke="#1b1b1b" stroke-width="1.5"/><circle cx="515" cy="333.0" r="7.5" fill="#ffffff" stroke="#1b1b1b" stroke-width="1.5"/><circle cx="515" cy="359.0" r="7.5" fill="#ffffff" stroke="#1b1b1b" stroke-width="1.5"/><circle cx="515" cy="385.0" r="7.5" fill="#ffffff" stroke="#1b1b1b" stroke-width="1.5"/><circle cx="557" cy="320.0" r="7.5" fill="#ffffff" stroke="#1b1b1b" stroke-width="1.5"/><circle cx="557" cy="346.0" r="7.5" fill="#ffffff" stroke="#1b1b1b" stroke-width="1.5"/><circle cx="557" cy="372.0" r="7.5" fill="#ffffff" stroke="#1b1b1b" stroke-width="1.5"/><text x="515" y="404" font-size="20" text-anchor="middle" fill="#1b1b1b">Reference  π<tspan baseline-shift="-26%" font-size="13">ref</tspan></text><text x="515" y="440" font-size="18" text-anchor="middle" fill="#666" font-weight="normal" font-style="italic">frozen</text><polyline points="330,215 378,215 378,170 420,170" fill="none" stroke="#1b1b1b" stroke-width="2.0" stroke-linejoin="round" stroke-linecap="round" marker-end="url(#arw)"/><polyline points="330,265 378,265 378,360 420,360" fill="none" stroke="#1b1b1b" stroke-width="2.0" stroke-linejoin="round" stroke-linecap="round" marker-end="url(#arw)"/><rect x="700" y="150" width="450" height="200" rx="16" ry="16" fill="#ffffff" stroke="#1b1b1b" stroke-width="2.0"/><text x="925" y="200" font-size="19" text-anchor="middle" fill="#1b1b1b">r<tspan baseline-shift="-26%" font-size="12">w</tspan> = log π<tspan baseline-shift="-26%" font-size="12">θ</tspan>(y<tspan baseline-shift="-26%" font-size="12">w</tspan>) − log π<tspan baseline-shift="-26%" font-size="12">ref</tspan>(y<tspan baseline-shift="-26%" font-size="12">w</tspan>)</text><text x="925" y="240" font-size="19" text-anchor="middle" fill="#1b1b1b">r<tspan baseline-shift="-26%" font-size="12">l</tspan> = log π<tspan baseline-shift="-26%" font-size="12">θ</tspan>(y<tspan baseline-shift="-26%" font-size="12">l</tspan>) − log π<tspan baseline-shift="-26%" font-size="12">ref</tspan>(y<tspan baseline-shift="-26%" font-size="12">l</tspan>)</text><line x1="720" y1="266" x2="1130" y2="266" stroke="#cccccc" stroke-width="1.0"/><text x="925" y="308" font-size="21" text-anchor="middle" fill="#1b1b1b">loss = − log σ( β ( r<tspan baseline-shift="-26%" font-size="14">w</tspan> − r<tspan baseline-shift="-26%" font-size="14">l</tspan> ) )</text><polyline points="610,165 700,215" fill="none" stroke="#1b1b1b" stroke-width="2.0" stroke-linejoin="round" stroke-linecap="round" marker-end="url(#arw)"/><polyline points="610,360 700,300" fill="none" stroke="#1b1b1b" stroke-width="2.0" stroke-linejoin="round" stroke-linecap="round" marker-end="url(#arw)"/></svg>