<svg xmlns="http://www.w3.org/2000/svg" viewBox="0 0 1380 320" font-family="'Times New Roman', Georgia, serif"><rect x="0" y="0" width="1380" height="320" fill="#ffffff"/><defs><marker id="arw" markerWidth="11" markerHeight="11" refX="8.5" refY="5" orient="auto" markerUnits="userSpaceOnUse"><path d="M1,1 L9,5 L1,9 Z" fill="#1b1b1b"/></marker></defs><rect x="70" y="30" width="30" height="22" rx="7" ry="7" fill="#f4ddc6" stroke="#7a6a58" stroke-width="1.8"/><text x="110" y="47" font-size="21" text-anchor="start" fill="#1b1b1b" font-weight="normal">Module</text><rect x="188" y="30" width="30" height="22" rx="7" ry="7" fill="#ededed" stroke="#bdbdbd" stroke-width="1.8"/><text x="228" y="47" font-size="21" text-anchor="start" fill="#1b1b1b" font-weight="normal">Generated Text</text><rect x="394" y="30" width="30" height="22" rx="7" ry="7" fill="#dde4ee" stroke="#92a1b6" stroke-width="1.8"/><text x="434" y="47" font-size="21" text-anchor="start" fill="#1b1b1b" font-weight="normal">Provided Text</text><rect x="44" y="110" width="160" height="96" rx="14" ry="14" fill="#f4ddc6" stroke="#7a6a58" stroke-width="1.8"/><text x="124.0" y="165.0" font-size="21" text-anchor="middle" fill="#1b1b1b" font-weight="normal">CPT / DAPT</text><text x="124.0" y="236" font-size="18" text-anchor="middle" fill="#666" font-weight="normal" font-style="italic">domain</text><rect x="234" y="110" width="160" height="96" rx="14" ry="14" fill="#f4ddc6" stroke="#7a6a58" stroke-width="1.8"/><text x="314.0" y="165.0" font-size="21" text-anchor="middle" fill="#1b1b1b" font-weight="normal">SFT</text><text x="314.0" y="236" font-size="18" text-anchor="middle" fill="#666" font-weight="normal" font-style="italic">behaviour</text><line x1="204" y1="158.0" x2="234" y2="158.0" stroke="#1b1b1b" stroke-width="2.0" marker-end="url(#arw)"/><rect x="424" y="110" width="160" height="96" rx="14" ry="14" fill="#f4ddc6" stroke="#7a6a58" stroke-width="1.8"/><text x="504.0" y="165.0" font-size="21" text-anchor="middle" fill="#1b1b1b" font-weight="normal">RS · Synth</text><text x="504.0" y="236" font-size="18" text-anchor="middle" fill="#666" font-weight="normal" font-style="italic">coverage</text><line x1="394" y1="158.0" x2="424" y2="158.0" stroke="#1b1b1b" stroke-width="2.0" marker-end="url(#arw)"/><rect x="614" y="110" width="160" height="96" rx="14" ry="14" fill="#f4ddc6" stroke="#7a6a58" stroke-width="1.8"/><text x="694.0" y="165.0" font-size="21" text-anchor="middle" fill="#1b1b1b" font-weight="normal">DPO</text><text x="694.0" y="236" font-size="18" text-anchor="middle" fill="#666" font-weight="normal" font-style="italic">preference</text><line x1="584" y1="158.0" x2="614" y2="158.0" stroke="#1b1b1b" stroke-width="2.0" marker-end="url(#arw)"/><rect x="804" y="110" width="160" height="96" rx="14" ry="14" fill="#f4ddc6" stroke="#7a6a58" stroke-width="1.8"/><text x="884.0" y="165.0" font-size="21" text-anchor="middle" fill="#1b1b1b" font-weight="normal">RLVR · GRPO</text><text x="884.0" y="236" font-size="18" text-anchor="middle" fill="#666" font-weight="normal" font-style="italic">reasoning</text><line x1="774" y1="158.0" x2="804" y2="158.0" stroke="#1b1b1b" stroke-width="2.0" marker-end="url(#arw)"/><rect x="994" y="110" width="160" height="96" rx="14" ry="14" fill="#f4ddc6" stroke="#7a6a58" stroke-width="1.8"/><text x="1074.0" y="165.0" font-size="21" text-anchor="middle" fill="#1b1b1b" font-weight="normal">Agentic RL</text><text x="1074.0" y="236" font-size="18" text-anchor="middle" fill="#666" font-weight="normal" font-style="italic">tools</text><line x1="964" y1="158.0" x2="994" y2="158.0" stroke="#1b1b1b" stroke-width="2.0" marker-end="url(#arw)"/><rect x="1184" y="110" width="160" height="96" rx="14" ry="14" fill="#f4ddc6" stroke="#7a6a58" stroke-width="1.8"/><text x="1264.0" y="165.0" font-size="21" text-anchor="middle" fill="#1b1b1b" font-weight="normal">Distill</text><text x="1264.0" y="236" font-size="18" text-anchor="middle" fill="#666" font-weight="normal" font-style="italic">deploy</text><line x1="1154" y1="158.0" x2="1184" y2="158.0" stroke="#1b1b1b" stroke-width="2.0" marker-end="url(#arw)"/><text x="44" y="82" font-size="18" text-anchor="start" fill="#666" font-weight="normal" font-style="italic">input: domain corpus</text><text x="1344" y="82" font-size="18" text-anchor="end" fill="#666" font-weight="normal" font-style="italic">→ small deploy model</text></svg>