<svg xmlns="http://www.w3.org/2000/svg" viewBox="0 0 1280 300" font-family="'Times New Roman', Georgia, serif"><rect x="0" y="0" width="1280" height="300" fill="#ffffff"/><defs><marker id="arw" markerWidth="11" markerHeight="11" refX="8.5" refY="5" orient="auto" markerUnits="userSpaceOnUse"><path d="M1,1 L9,5 L1,9 Z" fill="#1b1b1b"/></marker></defs><text x="80" y="150" font-size="78" text-anchor="start" fill="#1b1b1b" font-weight="bold">trainall</text><text x="82" y="196" font-size="23" text-anchor="start" fill="#666" font-weight="normal" font-style="italic">the frontier LLM training stack — one config-driven API</text><rect x="640" y="70" width="168" height="46" rx="10" ry="10" fill="#dde4ee" stroke="#92a1b6" stroke-width="2.0"/><text x="724.0" y="99.8" font-size="20" text-anchor="middle" fill="#1b1b1b" font-weight="normal">DATA</text><rect x="640" y="130" width="168" height="46" rx="10" ry="10" fill="#dde4ee" stroke="#92a1b6" stroke-width="2.0"/><text x="724.0" y="159.8" font-size="20" text-anchor="middle" fill="#1b1b1b" font-weight="normal">OBJECTIVE</text><rect x="640" y="190" width="168" height="46" rx="10" ry="10" fill="#dde4ee" stroke="#92a1b6" stroke-width="2.0"/><text x="724.0" y="219.8" font-size="20" text-anchor="middle" fill="#1b1b1b" font-weight="normal">ALGORITHM</text><rect x="880" y="78" width="150" height="150" rx="16" ry="16" fill="#f4ddc6" stroke="#7a6a58" stroke-width="1.8"/><line x1="913.0" y1="115.0" x2="955.0" y2="102.0" stroke="#1b1b1b" stroke-width="1.1" opacity="0.85"/><line x1="913.0" y1="115.0" x2="955.0" y2="128.0" stroke="#1b1b1b" stroke-width="1.1" opacity="0.85"/><line x1="913.0" y1="115.0" x2="955.0" y2="154.0" stroke="#1b1b1b" stroke-width="1.1" opacity="0.85"/><line x1="913.0" y1="115.0" x2="955.0" y2="180.0" stroke="#1b1b1b" stroke-width="1.1" opacity="0.85"/><line x1="913.0" y1="141.0" x2="955.0" y2="102.0" stroke="#1b1b1b" stroke-width="1.1" opacity="0.85"/><line x1="913.0" y1="141.0" x2="955.0" y2="128.0" stroke="#1b1b1b" stroke-width="1.1" opacity="0.85"/><line x1="913.0" y1="141.0" x2="955.0" y2="154.0" stroke="#1b1b1b" stroke-width="1.1" opacity="0.85"/><line x1="913.0" y1="141.0" x2="955.0" y2="180.0" stroke="#1b1b1b" stroke-width="1.1" opacity="0.85"/><line x1="913.0" y1="167.0" x2="955.0" y2="102.0" stroke="#1b1b1b" stroke-width="1.1" opacity="0.85"/><line x1="913.0" y1="167.0" x2="955.0" y2="128.0" stroke="#1b1b1b" stroke-width="1.1" opacity="0.85"/><line x1="913.0" y1="167.0" x2="955.0" y2="154.0" stroke="#1b1b1b" stroke-width="1.1" opacity="0.85"/><line x1="913.0" y1="167.0" x2="955.0" y2="180.0" stroke="#1b1b1b" stroke-width="1.1" opacity="0.85"/><line x1="955.0" y1="102.0" x2="997.0" y2="115.0" stroke="#1b1b1b" stroke-width="1.1" opacity="0.85"/><line x1="955.0" y1="102.0" x2="997.0" y2="141.0" stroke="#1b1b1b" stroke-width="1.1" opacity="0.85"/><line x1="955.0" y1="102.0" x2="997.0" y2="167.0" stroke="#1b1b1b" stroke-width="1.1" opacity="0.85"/><line x1="955.0" y1="128.0" x2="997.0" y2="115.0" stroke="#1b1b1b" stroke-width="1.1" opacity="0.85"/><line x1="955.0" y1="128.0" x2="997.0" y2="141.0" stroke="#1b1b1b" stroke-width="1.1" opacity="0.85"/><line x1="955.0" y1="128.0" x2="997.0" y2="167.0" stroke="#1b1b1b" stroke-width="1.1" opacity="0.85"/><line x1="955.0" y1="154.0" x2="997.0" y2="115.0" stroke="#1b1b1b" stroke-width="1.1" opacity="0.85"/><line x1="955.0" y1="154.0" x2="997.0" y2="141.0" stroke="#1b1b1b" stroke-width="1.1" opacity="0.85"/><line x1="955.0" y1="154.0" x2="997.0" y2="167.0" stroke="#1b1b1b" stroke-width="1.1" opacity="0.85"/><line x1="955.0" y1="180.0" x2="997.0" y2="115.0" stroke="#1b1b1b" stroke-width="1.1" opacity="0.85"/><line x1="955.0" y1="180.0" x2="997.0" y2="141.0" stroke="#1b1b1b" stroke-width="1.1" opacity="0.85"/><line x1="955.0" y1="180.0" x2="997.0" y2="167.0" stroke="#1b1b1b" stroke-width="1.1" opacity="0.85"/><circle cx="913.0" cy="115.0" r="7.5" fill="#ffffff" stroke="#1b1b1b" stroke-width="1.5"/><circle cx="913.0" cy="141.0" r="7.5" fill="#ffffff" stroke="#1b1b1b" stroke-width="1.5"/><circle cx="913.0" cy="167.0" r="7.5" fill="#ffffff" stroke="#1b1b1b" stroke-width="1.5"/><circle cx="955.0" cy="102.0" r="7.5" fill="#ffffff" stroke="#1b1b1b" stroke-width="1.5"/><circle cx="955.0" cy="128.0" r="7.5" fill="#ffffff" stroke="#1b1b1b" stroke-width="1.5"/><circle cx="955.0" cy="154.0" r="7.5" fill="#ffffff" stroke="#1b1b1b" stroke-width="1.5"/><circle cx="955.0" cy="180.0" r="7.5" fill="#ffffff" stroke="#1b1b1b" stroke-width="1.5"/><circle cx="997.0" cy="115.0" r="7.5" fill="#ffffff" stroke="#1b1b1b" stroke-width="1.5"/><circle cx="997.0" cy="141.0" r="7.5" fill="#ffffff" stroke="#1b1b1b" stroke-width="1.5"/><circle cx="997.0" cy="167.0" r="7.5" fill="#ffffff" stroke="#1b1b1b" stroke-width="1.5"/><text x="955.0" y="210" font-size="23" text-anchor="middle" fill="#1b1b1b" font-weight="normal">model</text><polyline points="808,93 850,93 850,153 880,153" fill="none" stroke="#1b1b1b" stroke-width="2.0" stroke-linejoin="round" stroke-linecap="round" marker-end="url(#arw)"/><polyline points="808,153 850,153 850,153 880,153" fill="none" stroke="#1b1b1b" stroke-width="2.0" stroke-linejoin="round" stroke-linecap="round" marker-end="url(#arw)"/><polyline points="808,213 850,213 850,153 880,153" fill="none" stroke="#1b1b1b" stroke-width="2.0" stroke-linejoin="round" stroke-linecap="round" marker-end="url(#arw)"/><rect x="1080" y="118" width="168" height="70" rx="14" ry="14" fill="#ededed" stroke="#bdbdbd" stroke-width="1.8"/><text x="1164.0" y="160.14" font-size="21" text-anchor="middle" fill="#1b1b1b" font-weight="normal">aligned model</text><line x1="1030" y1="153" x2="1078" y2="153" stroke="#1b1b1b" stroke-width="2.0" marker-end="url(#arw)"/></svg>