<svg xmlns="http://www.w3.org/2000/svg" viewBox="0 0 1140 480" font-family="'Times New Roman', Georgia, serif"><rect x="0" y="0" width="1140" height="480" fill="#ffffff"/><defs><marker id="arw" markerWidth="11" markerHeight="11" refX="8.5" refY="5" orient="auto" markerUnits="userSpaceOnUse"><path d="M1,1 L9,5 L1,9 Z" fill="#1b1b1b"/></marker></defs><rect x="70" y="30" width="30" height="22" rx="7" ry="7" fill="#f4ddc6" stroke="#7a6a58" stroke-width="1.8"/><text x="110" y="47" font-size="21" text-anchor="start" fill="#1b1b1b" font-weight="normal">Module</text><rect x="188" y="30" width="30" height="22" rx="7" ry="7" fill="#ededed" stroke="#bdbdbd" stroke-width="1.8"/><text x="228" y="47" font-size="21" text-anchor="start" fill="#1b1b1b" font-weight="normal">Generated Text</text><rect x="394" y="30" width="30" height="22" rx="7" ry="7" fill="#dde4ee" stroke="#92a1b6" stroke-width="1.8"/><text x="434" y="47" font-size="21" text-anchor="start" fill="#1b1b1b" font-weight="normal">Provided Text</text><text x="70" y="170" font-size="24" text-anchor="start" fill="#1b1b1b" font-weight="bold">LoRA</text><rect x="230" y="110" width="120" height="120" rx="6" ry="6" fill="#eef1f5" stroke="#1b1b1b" stroke-width="1.8"/><line x1="230" y1="140.0" x2="350" y2="140.0" stroke="#1b1b1b" stroke-width="0.7" opacity="0.5"/><line x1="230" y1="170.0" x2="350" y2="170.0" stroke="#1b1b1b" stroke-width="0.7" opacity="0.5"/><line x1="230" y1="200.0" x2="350" y2="200.0" stroke="#1b1b1b" stroke-width="0.7" opacity="0.5"/><line x1="260.0" y1="110" x2="260.0" y2="230" stroke="#1b1b1b" stroke-width="0.7" opacity="0.5"/><line x1="290.0" y1="110" x2="290.0" y2="230" stroke="#1b1b1b" stroke-width="0.7" opacity="0.5"/><line x1="320.0" y1="110" x2="320.0" y2="230" stroke="#1b1b1b" stroke-width="0.7" opacity="0.5"/><rect x="282.0" y="234" width="16.0" height="13.0" rx="2.5" ry="2.5" fill="#ffffff" stroke="#1b1b1b" stroke-width="1.6"/><path d="M284.0,234 v-5 a6,6 0 0 1 12,0 v5" fill="none" stroke="#1b1b1b" stroke-width="1.8"/><text x="290" y="98" font-size="19" text-anchor="middle" fill="#1b1b1b" font-weight="normal">W  (frozen)</text><text x="380" y="174" font-size="30" text-anchor="middle" fill="#1b1b1b">+</text><rect x="420" y="130" width="40" height="80" rx="6" ry="6" fill="#ffffff" stroke="#1b1b1b" stroke-width="1.8"/><line x1="420" y1="150.0" x2="460" y2="150.0" stroke="#1b1b1b" stroke-width="0.7" opacity="0.5"/><line x1="420" y1="170.0" x2="460" y2="170.0" stroke="#1b1b1b" stroke-width="0.7" opacity="0.5"/><line x1="420" y1="190.0" x2="460" y2="190.0" stroke="#1b1b1b" stroke-width="0.7" opacity="0.5"/><text x="440" y="98" font-size="20" text-anchor="middle" fill="#1b1b1b" font-weight="normal">B</text><text x="480" y="174" font-size="24" text-anchor="middle" fill="#1b1b1b">×</text><rect x="510" y="150" width="80" height="40" rx="6" ry="6" fill="#ffffff" stroke="#1b1b1b" stroke-width="1.8"/><line x1="530.0" y1="150" x2="530.0" y2="190" stroke="#1b1b1b" stroke-width="0.7" opacity="0.5"/><line x1="550.0" y1="150" x2="550.0" y2="190" stroke="#1b1b1b" stroke-width="0.7" opacity="0.5"/><line x1="570.0" y1="150" x2="570.0" y2="190" stroke="#1b1b1b" stroke-width="0.7" opacity="0.5"/><text x="550" y="98" font-size="20" text-anchor="middle" fill="#1b1b1b" font-weight="normal">A</text><text x="630" y="174" font-size="28" text-anchor="middle" fill="#1b1b1b">=</text><rect x="670" y="110" width="120" height="120" rx="6" ry="6" fill="#fff" stroke="#1b1b1b" stroke-width="1.8"/><line x1="670" y1="140.0" x2="790" y2="140.0" stroke="#1b1b1b" stroke-width="0.7" opacity="0.5"/><line x1="670" y1="170.0" x2="790" y2="170.0" stroke="#1b1b1b" stroke-width="0.7" opacity="0.5"/><line x1="670" y1="200.0" x2="790" y2="200.0" stroke="#1b1b1b" stroke-width="0.7" opacity="0.5"/><line x1="700.0" y1="110" x2="700.0" y2="230" stroke="#1b1b1b" stroke-width="0.7" opacity="0.5"/><line x1="730.0" y1="110" x2="730.0" y2="230" stroke="#1b1b1b" stroke-width="0.7" opacity="0.5"/><line x1="760.0" y1="110" x2="760.0" y2="230" stroke="#1b1b1b" stroke-width="0.7" opacity="0.5"/><text x="730" y="98" font-size="20" text-anchor="middle" fill="#1b1b1b" font-weight="normal">W′</text><text x="70" y="370" font-size="24" text-anchor="start" fill="#1b1b1b" font-weight="bold">QLoRA</text><rect x="230" y="310" width="120" height="120" rx="6" ry="6" fill="#eef1f5" stroke="#1b1b1b" stroke-width="1.8"/><line x1="230" y1="340.0" x2="350" y2="340.0" stroke="#1b1b1b" stroke-width="0.7" opacity="0.5"/><line x1="230" y1="370.0" x2="350" y2="370.0" stroke="#1b1b1b" stroke-width="0.7" opacity="0.5"/><line x1="230" y1="400.0" x2="350" y2="400.0" stroke="#1b1b1b" stroke-width="0.7" opacity="0.5"/><line x1="260.0" y1="310" x2="260.0" y2="430" stroke="#1b1b1b" stroke-width="0.7" opacity="0.5"/><line x1="290.0" y1="310" x2="290.0" y2="430" stroke="#1b1b1b" stroke-width="0.7" opacity="0.5"/><line x1="320.0" y1="310" x2="320.0" y2="430" stroke="#1b1b1b" stroke-width="0.7" opacity="0.5"/><rect x="282.0" y="434" width="16.0" height="13.0" rx="2.5" ry="2.5" fill="#ffffff" stroke="#1b1b1b" stroke-width="1.6"/><path d="M284.0,434 v-5 a6,6 0 0 1 12,0 v5" fill="none" stroke="#1b1b1b" stroke-width="1.8"/><text x="290" y="298" font-size="19" text-anchor="middle" fill="#1b1b1b" font-weight="normal">W  (frozen)</text><text x="320" y="444" font-size="15" text-anchor="start" fill="#666" font-weight="normal">4-bit</text><text x="380" y="374" font-size="30" text-anchor="middle" fill="#1b1b1b">+</text><rect x="420" y="330" width="40" height="80" rx="6" ry="6" fill="#ffffff" stroke="#1b1b1b" stroke-width="1.8"/><line x1="420" y1="350.0" x2="460" y2="350.0" stroke="#1b1b1b" stroke-width="0.7" opacity="0.5"/><line x1="420" y1="370.0" x2="460" y2="370.0" stroke="#1b1b1b" stroke-width="0.7" opacity="0.5"/><line x1="420" y1="390.0" x2="460" y2="390.0" stroke="#1b1b1b" stroke-width="0.7" opacity="0.5"/><text x="440" y="298" font-size="20" text-anchor="middle" fill="#1b1b1b" font-weight="normal">B</text><text x="480" y="374" font-size="24" text-anchor="middle" fill="#1b1b1b">×</text><rect x="510" y="350" width="80" height="40" rx="6" ry="6" fill="#ffffff" stroke="#1b1b1b" stroke-width="1.8"/><line x1="530.0" y1="350" x2="530.0" y2="390" stroke="#1b1b1b" stroke-width="0.7" opacity="0.5"/><line x1="550.0" y1="350" x2="550.0" y2="390" stroke="#1b1b1b" stroke-width="0.7" opacity="0.5"/><line x1="570.0" y1="350" x2="570.0" y2="390" stroke="#1b1b1b" stroke-width="0.7" opacity="0.5"/><text x="550" y="298" font-size="20" text-anchor="middle" fill="#1b1b1b" font-weight="normal">A</text><text x="630" y="374" font-size="28" text-anchor="middle" fill="#1b1b1b">=</text><rect x="670" y="310" width="120" height="120" rx="6" ry="6" fill="#fff" stroke="#1b1b1b" stroke-width="1.8"/><line x1="670" y1="340.0" x2="790" y2="340.0" stroke="#1b1b1b" stroke-width="0.7" opacity="0.5"/><line x1="670" y1="370.0" x2="790" y2="370.0" stroke="#1b1b1b" stroke-width="0.7" opacity="0.5"/><line x1="670" y1="400.0" x2="790" y2="400.0" stroke="#1b1b1b" stroke-width="0.7" opacity="0.5"/><line x1="700.0" y1="310" x2="700.0" y2="430" stroke="#1b1b1b" stroke-width="0.7" opacity="0.5"/><line x1="730.0" y1="310" x2="730.0" y2="430" stroke="#1b1b1b" stroke-width="0.7" opacity="0.5"/><line x1="760.0" y1="310" x2="760.0" y2="430" stroke="#1b1b1b" stroke-width="0.7" opacity="0.5"/><text x="730" y="298" font-size="20" text-anchor="middle" fill="#1b1b1b" font-weight="normal">W′</text><text x="570.0" y="458" font-size="22" text-anchor="middle" fill="#1b1b1b">W′ = W + (α / r) · B A      ( r ≪ d )</text></svg>