<svg xmlns="http://www.w3.org/2000/svg" viewBox="0 0 1060 430" font-family="'Times New Roman', Georgia, serif"><rect x="0" y="0" width="1060" height="430" fill="#ffffff"/><defs><marker id="arw" markerWidth="11" markerHeight="11" refX="8.5" refY="5" orient="auto" markerUnits="userSpaceOnUse"><path d="M1,1 L9,5 L1,9 Z" fill="#1b1b1b"/></marker></defs><rect x="70" y="34" width="30" height="22" rx="7" ry="7" fill="#f4ddc6" stroke="#7a6a58" stroke-width="1.8"/><text x="110" y="51" font-size="21" text-anchor="start" fill="#1b1b1b" font-weight="normal">Module</text><rect x="188" y="34" width="30" height="22" rx="7" ry="7" fill="#ededed" stroke="#bdbdbd" stroke-width="1.8"/><text x="228" y="51" font-size="21" text-anchor="start" fill="#1b1b1b" font-weight="normal">Generated Text</text><rect x="394" y="34" width="30" height="22" rx="7" ry="7" fill="#dde4ee" stroke="#92a1b6" stroke-width="1.8"/><text x="434" y="51" font-size="21" text-anchor="start" fill="#1b1b1b" font-weight="normal">Provided Text</text><rect x="70" y="150" width="320" height="150" rx="16" ry="16" fill="#dde4ee" stroke="#92a1b6" stroke-width="2.0"/><text x="230" y="138" font-size="20" text-anchor="middle" fill="#666">context  x<tspan baseline-shift="-26%" font-size="13">&lt;t</tspan></text><rect x="96" y="205" width="52" height="44" rx="8" ry="8" fill="#ffffff" stroke="#1b1b1b" stroke-width="1.5"/><text x="122" y="233" font-size="18" text-anchor="middle" fill="#1b1b1b">x<tspan baseline-shift="-26%" font-size="12">1</tspan></text><rect x="156" y="205" width="52" height="44" rx="8" ry="8" fill="#ffffff" stroke="#1b1b1b" stroke-width="1.5"/><text x="182" y="233" font-size="18" text-anchor="middle" fill="#1b1b1b">x<tspan baseline-shift="-26%" font-size="12">2</tspan></text><rect x="216" y="205" width="52" height="44" rx="8" ry="8" fill="#ffffff" stroke="#1b1b1b" stroke-width="1.5"/><text x="242" y="233" font-size="18" text-anchor="middle" fill="#1b1b1b">x<tspan baseline-shift="-26%" font-size="12">3</tspan></text><rect x="276" y="205" width="52" height="44" rx="8" ry="8" fill="#ffffff" stroke="#1b1b1b" stroke-width="1.5"/><text x="302" y="233" font-size="18" text-anchor="middle" fill="#1b1b1b">…</text><rect x="336" y="205" width="52" height="44" rx="8" ry="8" fill="#ffffff" stroke="#1b1b1b" stroke-width="1.5"/><text x="362" y="233" font-size="18" text-anchor="middle" fill="#1b1b1b">x<tspan baseline-shift="-26%" font-size="12">t-1</tspan></text><rect x="470" y="150" width="170" height="160" rx="16" ry="16" fill="#f4ddc6" stroke="#7a6a58" stroke-width="1.8"/><line x1="513.0" y1="192.0" x2="555.0" y2="179.0" stroke="#1b1b1b" stroke-width="1.1" opacity="0.85"/><line x1="513.0" y1="192.0" x2="555.0" y2="205.0" stroke="#1b1b1b" stroke-width="1.1" opacity="0.85"/><line x1="513.0" y1="192.0" x2="555.0" y2="231.0" stroke="#1b1b1b" stroke-width="1.1" opacity="0.85"/><line x1="513.0" y1="192.0" x2="555.0" y2="257.0" stroke="#1b1b1b" stroke-width="1.1" opacity="0.85"/><line x1="513.0" y1="218.0" x2="555.0" y2="179.0" stroke="#1b1b1b" stroke-width="1.1" opacity="0.85"/><line x1="513.0" y1="218.0" x2="555.0" y2="205.0" stroke="#1b1b1b" stroke-width="1.1" opacity="0.85"/><line x1="513.0" y1="218.0" x2="555.0" y2="231.0" stroke="#1b1b1b" stroke-width="1.1" opacity="0.85"/><line x1="513.0" y1="218.0" x2="555.0" y2="257.0" stroke="#1b1b1b" stroke-width="1.1" opacity="0.85"/><line x1="513.0" y1="244.0" x2="555.0" y2="179.0" stroke="#1b1b1b" stroke-width="1.1" opacity="0.85"/><line x1="513.0" y1="244.0" x2="555.0" y2="205.0" stroke="#1b1b1b" stroke-width="1.1" opacity="0.85"/><line x1="513.0" y1="244.0" x2="555.0" y2="231.0" stroke="#1b1b1b" stroke-width="1.1" opacity="0.85"/><line x1="513.0" y1="244.0" x2="555.0" y2="257.0" stroke="#1b1b1b" stroke-width="1.1" opacity="0.85"/><line x1="555.0" y1="179.0" x2="597.0" y2="192.0" stroke="#1b1b1b" stroke-width="1.1" opacity="0.85"/><line x1="555.0" y1="179.0" x2="597.0" y2="218.0" stroke="#1b1b1b" stroke-width="1.1" opacity="0.85"/><line x1="555.0" y1="179.0" x2="597.0" y2="244.0" stroke="#1b1b1b" stroke-width="1.1" opacity="0.85"/><line x1="555.0" y1="205.0" x2="597.0" y2="192.0" stroke="#1b1b1b" stroke-width="1.1" opacity="0.85"/><line x1="555.0" y1="205.0" x2="597.0" y2="218.0" stroke="#1b1b1b" stroke-width="1.1" opacity="0.85"/><line x1="555.0" y1="205.0" x2="597.0" y2="244.0" stroke="#1b1b1b" stroke-width="1.1" opacity="0.85"/><line x1="555.0" y1="231.0" x2="597.0" y2="192.0" stroke="#1b1b1b" stroke-width="1.1" opacity="0.85"/><line x1="555.0" y1="231.0" x2="597.0" y2="218.0" stroke="#1b1b1b" stroke-width="1.1" opacity="0.85"/><line x1="555.0" y1="231.0" x2="597.0" y2="244.0" stroke="#1b1b1b" stroke-width="1.1" opacity="0.85"/><line x1="555.0" y1="257.0" x2="597.0" y2="192.0" stroke="#1b1b1b" stroke-width="1.1" opacity="0.85"/><line x1="555.0" y1="257.0" x2="597.0" y2="218.0" stroke="#1b1b1b" stroke-width="1.1" opacity="0.85"/><line x1="555.0" y1="257.0" x2="597.0" y2="244.0" stroke="#1b1b1b" stroke-width="1.1" opacity="0.85"/><circle cx="513.0" cy="192.0" r="7.5" fill="#ffffff" stroke="#1b1b1b" stroke-width="1.5"/><circle cx="513.0" cy="218.0" r="7.5" fill="#ffffff" stroke="#1b1b1b" stroke-width="1.5"/><circle cx="513.0" cy="244.0" r="7.5" fill="#ffffff" stroke="#1b1b1b" stroke-width="1.5"/><circle cx="555.0" cy="179.0" r="7.5" fill="#ffffff" stroke="#1b1b1b" stroke-width="1.5"/><circle cx="555.0" cy="205.0" r="7.5" fill="#ffffff" stroke="#1b1b1b" stroke-width="1.5"/><circle cx="555.0" cy="231.0" r="7.5" fill="#ffffff" stroke="#1b1b1b" stroke-width="1.5"/><circle cx="555.0" cy="257.0" r="7.5" fill="#ffffff" stroke="#1b1b1b" stroke-width="1.5"/><circle cx="597.0" cy="192.0" r="7.5" fill="#ffffff" stroke="#1b1b1b" stroke-width="1.5"/><circle cx="597.0" cy="218.0" r="7.5" fill="#ffffff" stroke="#1b1b1b" stroke-width="1.5"/><circle cx="597.0" cy="244.0" r="7.5" fill="#ffffff" stroke="#1b1b1b" stroke-width="1.5"/><text x="555.0" y="292" font-size="23" text-anchor="middle" fill="#1b1b1b" font-weight="normal">LLM</text><line x1="390" y1="230" x2="468" y2="230" stroke="#1b1b1b" stroke-width="2.0" marker-end="url(#arw)"/><rect x="720" y="195" width="130" height="70" rx="14" ry="14" fill="#ededed" stroke="#bdbdbd" stroke-width="1.8"/><text x="785" y="240" font-size="24" text-anchor="middle" fill="#1b1b1b">x<tspan baseline-shift="-26%" font-size="16">t</tspan></text><line x1="640" y1="230" x2="718" y2="230" stroke="#1b1b1b" stroke-width="2.0" marker-end="url(#arw)"/><text x="785" y="300" font-size="18" text-anchor="middle" fill="#666" font-weight="normal" font-style="italic">predicted next token</text><text x="530.0" y="380" font-size="24" text-anchor="middle" fill="#1b1b1b">loss  =  − Σ<tspan baseline-shift="-26%" font-size="16">t</tspan>  log P<tspan baseline-shift="-26%" font-size="16">θ</tspan> ( x<tspan baseline-shift="-26%" font-size="16">t</tspan> | x<tspan baseline-shift="-26%" font-size="16">&lt;t</tspan> )</text></svg>