<svg xmlns="http://www.w3.org/2000/svg" viewBox="0 0 1200 440" font-family="'Times New Roman', Georgia, serif"><rect x="0" y="0" width="1200" height="440" fill="#ffffff"/><defs><marker id="arw" markerWidth="11" markerHeight="11" refX="8.5" refY="5" orient="auto" markerUnits="userSpaceOnUse"><path d="M1,1 L9,5 L1,9 Z" fill="#1b1b1b"/></marker></defs><rect x="70" y="30" width="30" height="22" rx="7" ry="7" fill="#f4ddc6" stroke="#7a6a58" stroke-width="1.8"/><text x="110" y="47" font-size="21" text-anchor="start" fill="#1b1b1b" font-weight="normal">Module</text><rect x="188" y="30" width="30" height="22" rx="7" ry="7" fill="#ededed" stroke="#bdbdbd" stroke-width="1.8"/><text x="228" y="47" font-size="21" text-anchor="start" fill="#1b1b1b" font-weight="normal">Generated Text</text><rect x="394" y="30" width="30" height="22" rx="7" ry="7" fill="#dde4ee" stroke="#92a1b6" stroke-width="1.8"/><text x="434" y="47" font-size="21" text-anchor="start" fill="#1b1b1b" font-weight="normal">Provided Text</text><text x="70" y="106" font-size="21" text-anchor="start" fill="#1b1b1b" font-weight="bold">Outcome supervision</text><rect x="250" y="132" width="96" height="56" rx="10" ry="10" fill="#ededed" stroke="#bdbdbd" stroke-width="1.6"/><text x="298" y="166" font-size="20" text-anchor="middle" fill="#1b1b1b">s<tspan baseline-shift="-26%" font-size="13">1</tspan></text><rect x="400" y="132" width="96" height="56" rx="10" ry="10" fill="#ededed" stroke="#bdbdbd" stroke-width="1.6"/><text x="448" y="166" font-size="20" text-anchor="middle" fill="#1b1b1b">s<tspan baseline-shift="-26%" font-size="13">2</tspan></text><line x1="346" y1="160" x2="400" y2="160" stroke="#1b1b1b" stroke-width="2.0" marker-end="url(#arw)"/><rect x="550" y="132" width="96" height="56" rx="10" ry="10" fill="#ededed" stroke="#bdbdbd" stroke-width="1.6"/><text x="598" y="166" font-size="20" text-anchor="middle" fill="#1b1b1b">s<tspan baseline-shift="-26%" font-size="13">3</tspan></text><line x1="496" y1="160" x2="550" y2="160" stroke="#1b1b1b" stroke-width="2.0" marker-end="url(#arw)"/><rect x="700" y="132" width="96" height="56" rx="10" ry="10" fill="#ededed" stroke="#bdbdbd" stroke-width="1.6"/><text x="748" y="166" font-size="20" text-anchor="middle" fill="#1b1b1b">s<tspan baseline-shift="-26%" font-size="13">4</tspan></text><line x1="646" y1="160" x2="700" y2="160" stroke="#1b1b1b" stroke-width="2.0" marker-end="url(#arw)"/><path d="M734,204 l9,11 l18,-23" fill="none" stroke="#1b1b1b" stroke-width="2.8" stroke-linecap="round" stroke-linejoin="round"/><text x="840" y="160" font-size="18" text-anchor="start" fill="#666" font-weight="normal" font-style="italic">only the final answer is scored</text><text x="70" y="286" font-size="21" text-anchor="start" fill="#1b1b1b" font-weight="bold">Process supervision</text><rect x="250" y="312" width="96" height="56" rx="10" ry="10" fill="#ededed" stroke="#bdbdbd" stroke-width="1.6"/><text x="298" y="346" font-size="20" text-anchor="middle" fill="#1b1b1b">s<tspan baseline-shift="-26%" font-size="13">1</tspan></text><path d="M284,384 l9,11 l18,-23" fill="none" stroke="#1b1b1b" stroke-width="2.8" stroke-linecap="round" stroke-linejoin="round"/><rect x="400" y="312" width="96" height="56" rx="10" ry="10" fill="#ededed" stroke="#bdbdbd" stroke-width="1.6"/><text x="448" y="346" font-size="20" text-anchor="middle" fill="#1b1b1b">s<tspan baseline-shift="-26%" font-size="13">2</tspan></text><line x1="346" y1="340" x2="400" y2="340" stroke="#1b1b1b" stroke-width="2.0" marker-end="url(#arw)"/><path d="M434,384 l9,11 l18,-23" fill="none" stroke="#1b1b1b" stroke-width="2.8" stroke-linecap="round" stroke-linejoin="round"/><rect x="550" y="312" width="96" height="56" rx="10" ry="10" fill="#ededed" stroke="#bdbdbd" stroke-width="1.6"/><text x="598" y="346" font-size="20" text-anchor="middle" fill="#1b1b1b">s<tspan baseline-shift="-26%" font-size="13">3</tspan></text><line x1="496" y1="340" x2="550" y2="340" stroke="#1b1b1b" stroke-width="2.0" marker-end="url(#arw)"/><path d="M586,374 l24,24 M610,374 l-24,24" fill="none" stroke="#1b1b1b" stroke-width="2.6" stroke-linecap="round"/><rect x="700" y="312" width="96" height="56" rx="10" ry="10" fill="#ededed" stroke="#bdbdbd" stroke-width="1.6"/><text x="748" y="346" font-size="20" text-anchor="middle" fill="#1b1b1b">s<tspan baseline-shift="-26%" font-size="13">4</tspan></text><line x1="646" y1="340" x2="700" y2="340" stroke="#1b1b1b" stroke-width="2.0" marker-end="url(#arw)"/><path d="M736,374 l24,24 M760,374 l-24,24" fill="none" stroke="#1b1b1b" stroke-width="2.6" stroke-linecap="round"/><text x="840" y="340" font-size="18" text-anchor="start" fill="#666" font-weight="normal" font-style="italic">every step is scored</text></svg>