<svg xmlns="http://www.w3.org/2000/svg" viewBox="0 0 880 540" font-family="'Times New Roman', Georgia, serif"><rect x="0" y="0" width="880" height="540" fill="#ffffff"/><defs><marker id="arw" markerWidth="11" markerHeight="11" refX="8.5" refY="5" orient="auto" markerUnits="userSpaceOnUse"><path d="M1,1 L9,5 L1,9 Z" fill="#1b1b1b"/></marker></defs><rect x="70" y="30" width="30" height="22" rx="7" ry="7" fill="#f4ddc6" stroke="#7a6a58" stroke-width="1.8"/><text x="110" y="47" font-size="21" text-anchor="start" fill="#1b1b1b" font-weight="normal">Module</text><rect x="188" y="30" width="30" height="22" rx="7" ry="7" fill="#ededed" stroke="#bdbdbd" stroke-width="1.8"/><text x="228" y="47" font-size="21" text-anchor="start" fill="#1b1b1b" font-weight="normal">Generated Text</text><rect x="394" y="30" width="30" height="22" rx="7" ry="7" fill="#dde4ee" stroke="#92a1b6" stroke-width="1.8"/><text x="434" y="47" font-size="21" text-anchor="start" fill="#1b1b1b" font-weight="normal">Provided Text</text><rect x="70" y="160" width="240" height="100" rx="16" ry="16" fill="#dde4ee" stroke="#92a1b6" stroke-width="2.0"/><text x="190" y="198" font-size="20" text-anchor="middle" fill="#1b1b1b" font-weight="normal">Human preferences</text><text x="190" y="230" font-size="21" text-anchor="middle" fill="#1b1b1b">y<tspan baseline-shift="-26%" font-size="14">w</tspan> ≻ y<tspan baseline-shift="-26%" font-size="14">l</tspan></text><text x="190" y="146" font-size="22" text-anchor="middle" fill="#1b1b1b" font-weight="normal">①</text><rect x="450" y="110" width="210" height="130" rx="16" ry="16" fill="#f4ddc6" stroke="#7a6a58" stroke-width="1.8"/><line x1="513" y1="132.0" x2="555" y2="119.0" stroke="#1b1b1b" stroke-width="1.1" opacity="0.85"/><line x1="513" y1="132.0" x2="555" y2="145.0" stroke="#1b1b1b" stroke-width="1.1" opacity="0.85"/><line x1="513" y1="132.0" x2="555" y2="171.0" stroke="#1b1b1b" stroke-width="1.1" opacity="0.85"/><line x1="513" y1="132.0" x2="555" y2="197.0" stroke="#1b1b1b" stroke-width="1.1" opacity="0.85"/><line x1="513" y1="158.0" x2="555" y2="119.0" stroke="#1b1b1b" stroke-width="1.1" opacity="0.85"/><line x1="513" y1="158.0" x2="555" y2="145.0" stroke="#1b1b1b" stroke-width="1.1" opacity="0.85"/><line x1="513" y1="158.0" x2="555" y2="171.0" stroke="#1b1b1b" stroke-width="1.1" opacity="0.85"/><line x1="513" y1="158.0" x2="555" y2="197.0" stroke="#1b1b1b" stroke-width="1.1" opacity="0.85"/><line x1="513" y1="184.0" x2="555" y2="119.0" stroke="#1b1b1b" stroke-width="1.1" opacity="0.85"/><line x1="513" y1="184.0" x2="555" y2="145.0" stroke="#1b1b1b" stroke-width="1.1" opacity="0.85"/><line x1="513" y1="184.0" x2="555" y2="171.0" stroke="#1b1b1b" stroke-width="1.1" opacity="0.85"/><line x1="513" y1="184.0" x2="555" y2="197.0" stroke="#1b1b1b" stroke-width="1.1" opacity="0.85"/><line x1="555" y1="119.0" x2="597" y2="132.0" stroke="#1b1b1b" stroke-width="1.1" opacity="0.85"/><line x1="555" y1="119.0" x2="597" y2="158.0" stroke="#1b1b1b" stroke-width="1.1" opacity="0.85"/><line x1="555" y1="119.0" x2="597" y2="184.0" stroke="#1b1b1b" stroke-width="1.1" opacity="0.85"/><line x1="555" y1="145.0" x2="597" y2="132.0" stroke="#1b1b1b" stroke-width="1.1" opacity="0.85"/><line x1="555" y1="145.0" x2="597" y2="158.0" stroke="#1b1b1b" stroke-width="1.1" opacity="0.85"/><line x1="555" y1="145.0" x2="597" y2="184.0" stroke="#1b1b1b" stroke-width="1.1" opacity="0.85"/><line x1="555" y1="171.0" x2="597" y2="132.0" stroke="#1b1b1b" stroke-width="1.1" opacity="0.85"/><line x1="555" y1="171.0" x2="597" y2="158.0" stroke="#1b1b1b" stroke-width="1.1" opacity="0.85"/><line x1="555" y1="171.0" x2="597" y2="184.0" stroke="#1b1b1b" stroke-width="1.1" opacity="0.85"/><line x1="555" y1="197.0" x2="597" y2="132.0" stroke="#1b1b1b" stroke-width="1.1" opacity="0.85"/><line x1="555" y1="197.0" x2="597" y2="158.0" stroke="#1b1b1b" stroke-width="1.1" opacity="0.85"/><line x1="555" y1="197.0" x2="597" y2="184.0" stroke="#1b1b1b" stroke-width="1.1" opacity="0.85"/><circle cx="513" cy="132.0" r="7.5" fill="#ffffff" stroke="#1b1b1b" stroke-width="1.5"/><circle cx="513" cy="158.0" r="7.5" fill="#ffffff" stroke="#1b1b1b" stroke-width="1.5"/><circle cx="513" cy="184.0" r="7.5" fill="#ffffff" stroke="#1b1b1b" stroke-width="1.5"/><circle cx="555" cy="119.0" r="7.5" fill="#ffffff" stroke="#1b1b1b" stroke-width="1.5"/><circle cx="555" cy="145.0" r="7.5" fill="#ffffff" stroke="#1b1b1b" stroke-width="1.5"/><circle cx="555" cy="171.0" r="7.5" fill="#ffffff" stroke="#1b1b1b" stroke-width="1.5"/><circle cx="555" cy="197.0" r="7.5" fill="#ffffff" stroke="#1b1b1b" stroke-width="1.5"/><circle cx="597" cy="132.0" r="7.5" fill="#ffffff" stroke="#1b1b1b" stroke-width="1.5"/><circle cx="597" cy="158.0" r="7.5" fill="#ffffff" stroke="#1b1b1b" stroke-width="1.5"/><circle cx="597" cy="184.0" r="7.5" fill="#ffffff" stroke="#1b1b1b" stroke-width="1.5"/><text x="555" y="220" font-size="20" text-anchor="middle" fill="#1b1b1b">Reward Model  r<tspan baseline-shift="-26%" font-size="13">φ</tspan></text><text x="555" y="96" font-size="22" text-anchor="middle" fill="#1b1b1b" font-weight="normal">②</text><rect x="450" y="340" width="210" height="140" rx="16" ry="16" fill="#f4ddc6" stroke="#7a6a58" stroke-width="1.8"/><line x1="513" y1="366.0" x2="555" y2="353.0" stroke="#1b1b1b" stroke-width="1.1" opacity="0.85"/><line x1="513" y1="366.0" x2="555" y2="379.0" stroke="#1b1b1b" stroke-width="1.1" opacity="0.85"/><line x1="513" y1="366.0" x2="555" y2="405.0" stroke="#1b1b1b" stroke-width="1.1" opacity="0.85"/><line x1="513" y1="366.0" x2="555" y2="431.0" stroke="#1b1b1b" stroke-width="1.1" opacity="0.85"/><line x1="513" y1="392.0" x2="555" y2="353.0" stroke="#1b1b1b" stroke-width="1.1" opacity="0.85"/><line x1="513" y1="392.0" x2="555" y2="379.0" stroke="#1b1b1b" stroke-width="1.1" opacity="0.85"/><line x1="513" y1="392.0" x2="555" y2="405.0" stroke="#1b1b1b" stroke-width="1.1" opacity="0.85"/><line x1="513" y1="392.0" x2="555" y2="431.0" stroke="#1b1b1b" stroke-width="1.1" opacity="0.85"/><line x1="513" y1="418.0" x2="555" y2="353.0" stroke="#1b1b1b" stroke-width="1.1" opacity="0.85"/><line x1="513" y1="418.0" x2="555" y2="379.0" stroke="#1b1b1b" stroke-width="1.1" opacity="0.85"/><line x1="513" y1="418.0" x2="555" y2="405.0" stroke="#1b1b1b" stroke-width="1.1" opacity="0.85"/><line x1="513" y1="418.0" x2="555" y2="431.0" stroke="#1b1b1b" stroke-width="1.1" opacity="0.85"/><line x1="555" y1="353.0" x2="597" y2="366.0" stroke="#1b1b1b" stroke-width="1.1" opacity="0.85"/><line x1="555" y1="353.0" x2="597" y2="392.0" stroke="#1b1b1b" stroke-width="1.1" opacity="0.85"/><line x1="555" y1="353.0" x2="597" y2="418.0" stroke="#1b1b1b" stroke-width="1.1" opacity="0.85"/><line x1="555" y1="379.0" x2="597" y2="366.0" stroke="#1b1b1b" stroke-width="1.1" opacity="0.85"/><line x1="555" y1="379.0" x2="597" y2="392.0" stroke="#1b1b1b" stroke-width="1.1" opacity="0.85"/><line x1="555" y1="379.0" x2="597" y2="418.0" stroke="#1b1b1b" stroke-width="1.1" opacity="0.85"/><line x1="555" y1="405.0" x2="597" y2="366.0" stroke="#1b1b1b" stroke-width="1.1" opacity="0.85"/><line x1="555" y1="405.0" x2="597" y2="392.0" stroke="#1b1b1b" stroke-width="1.1" opacity="0.85"/><line x1="555" y1="405.0" x2="597" y2="418.0" stroke="#1b1b1b" stroke-width="1.1" opacity="0.85"/><line x1="555" y1="431.0" x2="597" y2="366.0" stroke="#1b1b1b" stroke-width="1.1" opacity="0.85"/><line x1="555" y1="431.0" x2="597" y2="392.0" stroke="#1b1b1b" stroke-width="1.1" opacity="0.85"/><line x1="555" y1="431.0" x2="597" y2="418.0" stroke="#1b1b1b" stroke-width="1.1" opacity="0.85"/><circle cx="513" cy="366.0" r="7.5" fill="#ffffff" stroke="#1b1b1b" stroke-width="1.5"/><circle cx="513" cy="392.0" r="7.5" fill="#ffffff" stroke="#1b1b1b" stroke-width="1.5"/><circle cx="513" cy="418.0" r="7.5" fill="#ffffff" stroke="#1b1b1b" stroke-width="1.5"/><circle cx="555" cy="353.0" r="7.5" fill="#ffffff" stroke="#1b1b1b" stroke-width="1.5"/><circle cx="555" cy="379.0" r="7.5" fill="#ffffff" stroke="#1b1b1b" stroke-width="1.5"/><circle cx="555" cy="405.0" r="7.5" fill="#ffffff" stroke="#1b1b1b" stroke-width="1.5"/><circle cx="555" cy="431.0" r="7.5" fill="#ffffff" stroke="#1b1b1b" stroke-width="1.5"/><circle cx="597" cy="366.0" r="7.5" fill="#ffffff" stroke="#1b1b1b" stroke-width="1.5"/><circle cx="597" cy="392.0" r="7.5" fill="#ffffff" stroke="#1b1b1b" stroke-width="1.5"/><circle cx="597" cy="418.0" r="7.5" fill="#ffffff" stroke="#1b1b1b" stroke-width="1.5"/><text x="555" y="456" font-size="21" text-anchor="middle" fill="#1b1b1b">Policy  π<tspan baseline-shift="-26%" font-size="14">θ</tspan></text><text x="555" y="326" font-size="22" text-anchor="middle" fill="#1b1b1b" font-weight="normal">③</text><rect x="120" y="340" width="210" height="140" rx="16" ry="16" fill="#f4ddc6" stroke="#7a6a58" stroke-width="1.8" stroke-dasharray="7 6"/><line x1="183" y1="366.0" x2="225" y2="353.0" stroke="#1b1b1b" stroke-width="1.1" opacity="0.85"/><line x1="183" y1="366.0" x2="225" y2="379.0" stroke="#1b1b1b" stroke-width="1.1" opacity="0.85"/><line x1="183" y1="366.0" x2="225" y2="405.0" stroke="#1b1b1b" stroke-width="1.1" opacity="0.85"/><line x1="183" y1="366.0" x2="225" y2="431.0" stroke="#1b1b1b" stroke-width="1.1" opacity="0.85"/><line x1="183" y1="392.0" x2="225" y2="353.0" stroke="#1b1b1b" stroke-width="1.1" opacity="0.85"/><line x1="183" y1="392.0" x2="225" y2="379.0" stroke="#1b1b1b" stroke-width="1.1" opacity="0.85"/><line x1="183" y1="392.0" x2="225" y2="405.0" stroke="#1b1b1b" stroke-width="1.1" opacity="0.85"/><line x1="183" y1="392.0" x2="225" y2="431.0" stroke="#1b1b1b" stroke-width="1.1" opacity="0.85"/><line x1="183" y1="418.0" x2="225" y2="353.0" stroke="#1b1b1b" stroke-width="1.1" opacity="0.85"/><line x1="183" y1="418.0" x2="225" y2="379.0" stroke="#1b1b1b" stroke-width="1.1" opacity="0.85"/><line x1="183" y1="418.0" x2="225" y2="405.0" stroke="#1b1b1b" stroke-width="1.1" opacity="0.85"/><line x1="183" y1="418.0" x2="225" y2="431.0" stroke="#1b1b1b" stroke-width="1.1" opacity="0.85"/><line x1="225" y1="353.0" x2="267" y2="366.0" stroke="#1b1b1b" stroke-width="1.1" opacity="0.85"/><line x1="225" y1="353.0" x2="267" y2="392.0" stroke="#1b1b1b" stroke-width="1.1" opacity="0.85"/><line x1="225" y1="353.0" x2="267" y2="418.0" stroke="#1b1b1b" stroke-width="1.1" opacity="0.85"/><line x1="225" y1="379.0" x2="267" y2="366.0" stroke="#1b1b1b" stroke-width="1.1" opacity="0.85"/><line x1="225" y1="379.0" x2="267" y2="392.0" stroke="#1b1b1b" stroke-width="1.1" opacity="0.85"/><line x1="225" y1="379.0" x2="267" y2="418.0" stroke="#1b1b1b" stroke-width="1.1" opacity="0.85"/><line x1="225" y1="405.0" x2="267" y2="366.0" stroke="#1b1b1b" stroke-width="1.1" opacity="0.85"/><line x1="225" y1="405.0" x2="267" y2="392.0" stroke="#1b1b1b" stroke-width="1.1" opacity="0.85"/><line x1="225" y1="405.0" x2="267" y2="418.0" stroke="#1b1b1b" stroke-width="1.1" opacity="0.85"/><line x1="225" y1="431.0" x2="267" y2="366.0" stroke="#1b1b1b" stroke-width="1.1" opacity="0.85"/><line x1="225" y1="431.0" x2="267" y2="392.0" stroke="#1b1b1b" stroke-width="1.1" opacity="0.85"/><line x1="225" y1="431.0" x2="267" y2="418.0" stroke="#1b1b1b" stroke-width="1.1" opacity="0.85"/><circle cx="183" cy="366.0" r="7.5" fill="#ffffff" stroke="#1b1b1b" stroke-width="1.5"/><circle cx="183" cy="392.0" r="7.5" fill="#ffffff" stroke="#1b1b1b" stroke-width="1.5"/><circle cx="183" cy="418.0" r="7.5" fill="#ffffff" stroke="#1b1b1b" stroke-width="1.5"/><circle cx="225" cy="353.0" r="7.5" fill="#ffffff" stroke="#1b1b1b" stroke-width="1.5"/><circle cx="225" cy="379.0" r="7.5" fill="#ffffff" stroke="#1b1b1b" stroke-width="1.5"/><circle cx="225" cy="405.0" r="7.5" fill="#ffffff" stroke="#1b1b1b" stroke-width="1.5"/><circle cx="225" cy="431.0" r="7.5" fill="#ffffff" stroke="#1b1b1b" stroke-width="1.5"/><circle cx="267" cy="366.0" r="7.5" fill="#ffffff" stroke="#1b1b1b" stroke-width="1.5"/><circle cx="267" cy="392.0" r="7.5" fill="#ffffff" stroke="#1b1b1b" stroke-width="1.5"/><circle cx="267" cy="418.0" r="7.5" fill="#ffffff" stroke="#1b1b1b" stroke-width="1.5"/><text x="225" y="456" font-size="20" text-anchor="middle" fill="#1b1b1b">Reference  π<tspan baseline-shift="-26%" font-size="13">ref</tspan></text><text x="225" y="498" font-size="18" text-anchor="middle" fill="#666" font-weight="normal" font-style="italic">frozen</text><polyline points="310,200 450,172" fill="none" stroke="#1b1b1b" stroke-width="2.0" stroke-linejoin="round" stroke-linecap="round" marker-end="url(#arw)"/><text x="380" y="158" font-size="18" text-anchor="middle" fill="#666" font-weight="normal" font-style="italic">BT loss</text><polyline points="330,410 450,410" fill="none" stroke="#1b1b1b" stroke-width="2.0" stroke-linejoin="round" stroke-linecap="round" marker-end="url(#arw)"/><text x="390" y="396" font-size="18" text-anchor="middle" fill="#666" font-weight="normal" font-style="italic">KL</text><polyline points="515,340 515,240" fill="none" stroke="#1b1b1b" stroke-width="2.0" stroke-linejoin="round" stroke-linecap="round" marker-end="url(#arw)"/><text x="455" y="296" font-size="16" text-anchor="end" fill="#666" font-weight="normal" font-style="italic">sample y</text><polyline points="595,240 595,340" fill="none" stroke="#1b1b1b" stroke-width="2.0" stroke-linejoin="round" stroke-linecap="round" marker-end="url(#arw)"/><text x="615" y="296" font-size="16" text-anchor="start" fill="#666" font-weight="normal" font-style="italic">reward r → A</text><text x="440.0" y="524" font-size="18" text-anchor="middle" fill="#666">②  learn a reward from rankings        ③  optimize the policy by PPO under a KL leash</text></svg>