<svg xmlns="http://www.w3.org/2000/svg" viewBox="0 0 1220 560" font-family="'Times New Roman', Georgia, serif"><rect x="0" y="0" width="1220" height="560" fill="#ffffff"/><defs><marker id="arw" markerWidth="11" markerHeight="11" refX="8.5" refY="5" orient="auto" markerUnits="userSpaceOnUse"><path d="M1,1 L9,5 L1,9 Z" fill="#1b1b1b"/></marker></defs><rect x="70" y="34" width="30" height="22" rx="7" ry="7" fill="#f4ddc6" stroke="#7a6a58" stroke-width="1.8"/><text x="110" y="51" font-size="21" text-anchor="start" fill="#1b1b1b" font-weight="normal">Module</text><rect x="188" y="34" width="30" height="22" rx="7" ry="7" fill="#ededed" stroke="#bdbdbd" stroke-width="1.8"/><text x="228" y="51" font-size="21" text-anchor="start" fill="#1b1b1b" font-weight="normal">Generated Text</text><rect x="394" y="34" width="30" height="22" rx="7" ry="7" fill="#dde4ee" stroke="#92a1b6" stroke-width="1.8"/><text x="434" y="51" font-size="21" text-anchor="start" fill="#1b1b1b" font-weight="normal">Provided Text</text><rect x="60" y="250" width="160" height="72" rx="14" ry="14" fill="#dde4ee" stroke="#92a1b6" stroke-width="2.0"/><text x="140.0" y="293.82" font-size="23" text-anchor="middle" fill="#1b1b1b" font-weight="normal">Prompt</text><rect x="280" y="200" width="180" height="170" rx="16" ry="16" fill="#f4ddc6" stroke="#7a6a58" stroke-width="1.8"/><line x1="328.0" y1="247.0" x2="370.0" y2="234.0" stroke="#1b1b1b" stroke-width="1.1" opacity="0.85"/><line x1="328.0" y1="247.0" x2="370.0" y2="260.0" stroke="#1b1b1b" stroke-width="1.1" opacity="0.85"/><line x1="328.0" y1="247.0" x2="370.0" y2="286.0" stroke="#1b1b1b" stroke-width="1.1" opacity="0.85"/><line x1="328.0" y1="247.0" x2="370.0" y2="312.0" stroke="#1b1b1b" stroke-width="1.1" opacity="0.85"/><line x1="328.0" y1="273.0" x2="370.0" y2="234.0" stroke="#1b1b1b" stroke-width="1.1" opacity="0.85"/><line x1="328.0" y1="273.0" x2="370.0" y2="260.0" stroke="#1b1b1b" stroke-width="1.1" opacity="0.85"/><line x1="328.0" y1="273.0" x2="370.0" y2="286.0" stroke="#1b1b1b" stroke-width="1.1" opacity="0.85"/><line x1="328.0" y1="273.0" x2="370.0" y2="312.0" stroke="#1b1b1b" stroke-width="1.1" opacity="0.85"/><line x1="328.0" y1="299.0" x2="370.0" y2="234.0" stroke="#1b1b1b" stroke-width="1.1" opacity="0.85"/><line x1="328.0" y1="299.0" x2="370.0" y2="260.0" stroke="#1b1b1b" stroke-width="1.1" opacity="0.85"/><line x1="328.0" y1="299.0" x2="370.0" y2="286.0" stroke="#1b1b1b" stroke-width="1.1" opacity="0.85"/><line x1="328.0" y1="299.0" x2="370.0" y2="312.0" stroke="#1b1b1b" stroke-width="1.1" opacity="0.85"/><line x1="370.0" y1="234.0" x2="412.0" y2="247.0" stroke="#1b1b1b" stroke-width="1.1" opacity="0.85"/><line x1="370.0" y1="234.0" x2="412.0" y2="273.0" stroke="#1b1b1b" stroke-width="1.1" opacity="0.85"/><line x1="370.0" y1="234.0" x2="412.0" y2="299.0" stroke="#1b1b1b" stroke-width="1.1" opacity="0.85"/><line x1="370.0" y1="260.0" x2="412.0" y2="247.0" stroke="#1b1b1b" stroke-width="1.1" opacity="0.85"/><line x1="370.0" y1="260.0" x2="412.0" y2="273.0" stroke="#1b1b1b" stroke-width="1.1" opacity="0.85"/><line x1="370.0" y1="260.0" x2="412.0" y2="299.0" stroke="#1b1b1b" stroke-width="1.1" opacity="0.85"/><line x1="370.0" y1="286.0" x2="412.0" y2="247.0" stroke="#1b1b1b" stroke-width="1.1" opacity="0.85"/><line x1="370.0" y1="286.0" x2="412.0" y2="273.0" stroke="#1b1b1b" stroke-width="1.1" opacity="0.85"/><line x1="370.0" y1="286.0" x2="412.0" y2="299.0" stroke="#1b1b1b" stroke-width="1.1" opacity="0.85"/><line x1="370.0" y1="312.0" x2="412.0" y2="247.0" stroke="#1b1b1b" stroke-width="1.1" opacity="0.85"/><line x1="370.0" y1="312.0" x2="412.0" y2="273.0" stroke="#1b1b1b" stroke-width="1.1" opacity="0.85"/><line x1="370.0" y1="312.0" x2="412.0" y2="299.0" stroke="#1b1b1b" stroke-width="1.1" opacity="0.85"/><circle cx="328.0" cy="247.0" r="7.5" fill="#ffffff" stroke="#1b1b1b" stroke-width="1.5"/><circle cx="328.0" cy="273.0" r="7.5" fill="#ffffff" stroke="#1b1b1b" stroke-width="1.5"/><circle cx="328.0" cy="299.0" r="7.5" fill="#ffffff" stroke="#1b1b1b" stroke-width="1.5"/><circle cx="370.0" cy="234.0" r="7.5" fill="#ffffff" stroke="#1b1b1b" stroke-width="1.5"/><circle cx="370.0" cy="260.0" r="7.5" fill="#ffffff" stroke="#1b1b1b" stroke-width="1.5"/><circle cx="370.0" cy="286.0" r="7.5" fill="#ffffff" stroke="#1b1b1b" stroke-width="1.5"/><circle cx="370.0" cy="312.0" r="7.5" fill="#ffffff" stroke="#1b1b1b" stroke-width="1.5"/><circle cx="412.0" cy="247.0" r="7.5" fill="#ffffff" stroke="#1b1b1b" stroke-width="1.5"/><circle cx="412.0" cy="273.0" r="7.5" fill="#ffffff" stroke="#1b1b1b" stroke-width="1.5"/><circle cx="412.0" cy="299.0" r="7.5" fill="#ffffff" stroke="#1b1b1b" stroke-width="1.5"/><text x="370.0" y="352" font-size="23" text-anchor="middle" fill="#1b1b1b" font-weight="normal">LLM  (policy)</text><line x1="220" y1="286" x2="278" y2="286" stroke="#1b1b1b" stroke-width="2.0" marker-end="url(#arw)"/><rect x="524" y="198" width="168" height="196" rx="16" ry="16" fill="none" stroke="#9aa1ab" stroke-width="1.6" stroke-dasharray="6 6"/><rect x="540" y="212" width="136" height="44" rx="10" ry="10" fill="#ededed" stroke="#bdbdbd" stroke-width="1.6"/><text x="608" y="241" font-size="22" text-anchor="middle" fill="#1b1b1b">o<tspan baseline-shift="-26%" font-size="14">1</tspan></text><rect x="540" y="270" width="136" height="44" rx="10" ry="10" fill="#ededed" stroke="#bdbdbd" stroke-width="1.6"/><text x="608" y="299" font-size="22" text-anchor="middle" fill="#1b1b1b">o<tspan baseline-shift="-26%" font-size="14">2</tspan></text><text x="608" y="320" font-size="24" text-anchor="middle" fill="#1b1b1b" font-weight="normal">⋮</text><rect x="540" y="334" width="136" height="44" rx="10" ry="10" fill="#ededed" stroke="#bdbdbd" stroke-width="1.6"/><text x="608" y="363" font-size="22" text-anchor="middle" fill="#1b1b1b">o<tspan baseline-shift="-26%" font-size="14">k</tspan></text><text x="608" y="412" font-size="18" text-anchor="middle" fill="#666" font-weight="normal" font-style="italic">group of k samples</text><line x1="460" y1="286" x2="520" y2="286" stroke="#1b1b1b" stroke-width="2.0" marker-end="url(#arw)"/><rect x="720" y="200" width="180" height="170" rx="16" ry="16" fill="#f4ddc6" stroke="#7a6a58" stroke-width="1.8"/><path d="M764.0,271.0 l12,14 l24,-30" fill="none" stroke="#1b1b1b" stroke-width="3.4" stroke-linecap="round" stroke-linejoin="round"/><path d="M824.0,255.0 l30,30 M854.0,255.0 l-30,30" fill="none" stroke="#1b1b1b" stroke-width="3.0" stroke-linecap="round"/><text x="810.0" y="352" font-size="23" text-anchor="middle" fill="#1b1b1b" font-weight="normal">Verifier</text><line x1="692" y1="286" x2="718" y2="286" stroke="#1b1b1b" stroke-width="2.0" marker-end="url(#arw)"/><rect x="980" y="212" width="120" height="44" rx="10" ry="10" fill="#ededed" stroke="#bdbdbd" stroke-width="1.6"/><text x="1040" y="241" font-size="22" text-anchor="middle" fill="#1b1b1b">r<tspan baseline-shift="-26%" font-size="14">1</tspan></text><rect x="980" y="270" width="120" height="44" rx="10" ry="10" fill="#ededed" stroke="#bdbdbd" stroke-width="1.6"/><text x="1040" y="299" font-size="22" text-anchor="middle" fill="#1b1b1b">r<tspan baseline-shift="-26%" font-size="14">2</tspan></text><text x="1040" y="320" font-size="24" text-anchor="middle" fill="#1b1b1b" font-weight="normal">⋮</text><rect x="980" y="334" width="120" height="44" rx="10" ry="10" fill="#ededed" stroke="#bdbdbd" stroke-width="1.6"/><text x="1040" y="363" font-size="22" text-anchor="middle" fill="#1b1b1b">r<tspan baseline-shift="-26%" font-size="14">k</tspan></text><text x="1040" y="412" font-size="18" text-anchor="middle" fill="#666" font-weight="normal" font-style="italic">rewards  r ∈ {0,1}</text><line x1="900" y1="286" x2="976" y2="286" stroke="#1b1b1b" stroke-width="2.0" marker-end="url(#arw)"/><polyline points="1040,404 1040,500 370,500 370,372" fill="none" stroke="#1b1b1b" stroke-width="2.0" stroke-linejoin="round" stroke-linecap="round" marker-end="url(#arw)"/><text x="680" y="530" font-size="22" text-anchor="middle" fill="#1b1b1b">GRPO advantage   A<tspan baseline-shift="-26%" font-size="14">i</tspan> = (r<tspan baseline-shift="-26%" font-size="14">i</tspan> − mean) / std   →   policy-gradient update</text></svg>