<svg xmlns="http://www.w3.org/2000/svg" viewBox="0 0 1080 430" font-family="'Times New Roman', Georgia, serif"><rect x="0" y="0" width="1080" height="430" fill="#ffffff"/><defs><marker id="arw" markerWidth="11" markerHeight="11" refX="8.5" refY="5" orient="auto" markerUnits="userSpaceOnUse"><path d="M1,1 L9,5 L1,9 Z" fill="#1b1b1b"/></marker></defs><rect x="70" y="34" width="30" height="22" rx="7" ry="7" fill="#f4ddc6" stroke="#7a6a58" stroke-width="1.8"/><text x="110" y="51" font-size="21" text-anchor="start" fill="#1b1b1b" font-weight="normal">Module</text><rect x="188" y="34" width="30" height="22" rx="7" ry="7" fill="#ededed" stroke="#bdbdbd" stroke-width="1.8"/><text x="228" y="51" font-size="21" text-anchor="start" fill="#1b1b1b" font-weight="normal">Generated Text</text><rect x="394" y="34" width="30" height="22" rx="7" ry="7" fill="#dde4ee" stroke="#92a1b6" stroke-width="1.8"/><text x="434" y="51" font-size="21" text-anchor="start" fill="#1b1b1b" font-weight="normal">Provided Text</text><rect x="70" y="140" width="360" height="150" rx="16" ry="16" fill="#dde4ee" stroke="#92a1b6" stroke-width="2.0"/><text x="250" y="128" font-size="18" text-anchor="middle" fill="#666" font-weight="normal">Demonstration  (prompt → ideal response)</text><rect x="92" y="195" width="48" height="44" rx="8" ry="8" fill="#e6e6e6" stroke="#bdbdbd" stroke-width="1.4"/><line x1="100" y1="239" x2="132" y2="195" stroke="#bbb" stroke-width="1"/><rect x="148" y="195" width="48" height="44" rx="8" ry="8" fill="#e6e6e6" stroke="#bdbdbd" stroke-width="1.4"/><line x1="156" y1="239" x2="188" y2="195" stroke="#bbb" stroke-width="1"/><rect x="204" y="195" width="48" height="44" rx="8" ry="8" fill="#e6e6e6" stroke="#bdbdbd" stroke-width="1.4"/><line x1="212" y1="239" x2="244" y2="195" stroke="#bbb" stroke-width="1"/><rect x="260" y="195" width="48" height="44" rx="8" ry="8" fill="#f4ddc6" stroke="#7a6a58" stroke-width="1.4"/><rect x="316" y="195" width="48" height="44" rx="8" ry="8" fill="#f4ddc6" stroke="#7a6a58" stroke-width="1.4"/><rect x="372" y="195" width="48" height="44" rx="8" ry="8" fill="#f4ddc6" stroke="#7a6a58" stroke-width="1.4"/><text x="176" y="270" font-size="15" text-anchor="middle" fill="#666" font-weight="normal">masked (−100)</text><text x="372" y="270" font-size="15" text-anchor="middle" fill="#666" font-weight="normal">trained</text><rect x="520" y="150" width="170" height="160" rx="16" ry="16" fill="#f4ddc6" stroke="#7a6a58" stroke-width="1.8"/><line x1="563.0" y1="192.0" x2="605.0" y2="179.0" stroke="#1b1b1b" stroke-width="1.1" opacity="0.85"/><line x1="563.0" y1="192.0" x2="605.0" y2="205.0" stroke="#1b1b1b" stroke-width="1.1" opacity="0.85"/><line x1="563.0" y1="192.0" x2="605.0" y2="231.0" stroke="#1b1b1b" stroke-width="1.1" opacity="0.85"/><line x1="563.0" y1="192.0" x2="605.0" y2="257.0" stroke="#1b1b1b" stroke-width="1.1" opacity="0.85"/><line x1="563.0" y1="218.0" x2="605.0" y2="179.0" stroke="#1b1b1b" stroke-width="1.1" opacity="0.85"/><line x1="563.0" y1="218.0" x2="605.0" y2="205.0" stroke="#1b1b1b" stroke-width="1.1" opacity="0.85"/><line x1="563.0" y1="218.0" x2="605.0" y2="231.0" stroke="#1b1b1b" stroke-width="1.1" opacity="0.85"/><line x1="563.0" y1="218.0" x2="605.0" y2="257.0" stroke="#1b1b1b" stroke-width="1.1" opacity="0.85"/><line x1="563.0" y1="244.0" x2="605.0" y2="179.0" stroke="#1b1b1b" stroke-width="1.1" opacity="0.85"/><line x1="563.0" y1="244.0" x2="605.0" y2="205.0" stroke="#1b1b1b" stroke-width="1.1" opacity="0.85"/><line x1="563.0" y1="244.0" x2="605.0" y2="231.0" stroke="#1b1b1b" stroke-width="1.1" opacity="0.85"/><line x1="563.0" y1="244.0" x2="605.0" y2="257.0" stroke="#1b1b1b" stroke-width="1.1" opacity="0.85"/><line x1="605.0" y1="179.0" x2="647.0" y2="192.0" stroke="#1b1b1b" stroke-width="1.1" opacity="0.85"/><line x1="605.0" y1="179.0" x2="647.0" y2="218.0" stroke="#1b1b1b" stroke-width="1.1" opacity="0.85"/><line x1="605.0" y1="179.0" x2="647.0" y2="244.0" stroke="#1b1b1b" stroke-width="1.1" opacity="0.85"/><line x1="605.0" y1="205.0" x2="647.0" y2="192.0" stroke="#1b1b1b" stroke-width="1.1" opacity="0.85"/><line x1="605.0" y1="205.0" x2="647.0" y2="218.0" stroke="#1b1b1b" stroke-width="1.1" opacity="0.85"/><line x1="605.0" y1="205.0" x2="647.0" y2="244.0" stroke="#1b1b1b" stroke-width="1.1" opacity="0.85"/><line x1="605.0" y1="231.0" x2="647.0" y2="192.0" stroke="#1b1b1b" stroke-width="1.1" opacity="0.85"/><line x1="605.0" y1="231.0" x2="647.0" y2="218.0" stroke="#1b1b1b" stroke-width="1.1" opacity="0.85"/><line x1="605.0" y1="231.0" x2="647.0" y2="244.0" stroke="#1b1b1b" stroke-width="1.1" opacity="0.85"/><line x1="605.0" y1="257.0" x2="647.0" y2="192.0" stroke="#1b1b1b" stroke-width="1.1" opacity="0.85"/><line x1="605.0" y1="257.0" x2="647.0" y2="218.0" stroke="#1b1b1b" stroke-width="1.1" opacity="0.85"/><line x1="605.0" y1="257.0" x2="647.0" y2="244.0" stroke="#1b1b1b" stroke-width="1.1" opacity="0.85"/><circle cx="563.0" cy="192.0" r="7.5" fill="#ffffff" stroke="#1b1b1b" stroke-width="1.5"/><circle cx="563.0" cy="218.0" r="7.5" fill="#ffffff" stroke="#1b1b1b" stroke-width="1.5"/><circle cx="563.0" cy="244.0" r="7.5" fill="#ffffff" stroke="#1b1b1b" stroke-width="1.5"/><circle cx="605.0" cy="179.0" r="7.5" fill="#ffffff" stroke="#1b1b1b" stroke-width="1.5"/><circle cx="605.0" cy="205.0" r="7.5" fill="#ffffff" stroke="#1b1b1b" stroke-width="1.5"/><circle cx="605.0" cy="231.0" r="7.5" fill="#ffffff" stroke="#1b1b1b" stroke-width="1.5"/><circle cx="605.0" cy="257.0" r="7.5" fill="#ffffff" stroke="#1b1b1b" stroke-width="1.5"/><circle cx="647.0" cy="192.0" r="7.5" fill="#ffffff" stroke="#1b1b1b" stroke-width="1.5"/><circle cx="647.0" cy="218.0" r="7.5" fill="#ffffff" stroke="#1b1b1b" stroke-width="1.5"/><circle cx="647.0" cy="244.0" r="7.5" fill="#ffffff" stroke="#1b1b1b" stroke-width="1.5"/><text x="605.0" y="292" font-size="23" text-anchor="middle" fill="#1b1b1b" font-weight="normal">LLM</text><line x1="430" y1="215" x2="518" y2="215" stroke="#1b1b1b" stroke-width="2.0" marker-end="url(#arw)"/><rect x="760" y="180" width="260" height="80" rx="14" ry="14" fill="#ededed" stroke="#bdbdbd" stroke-width="1.8"/><text x="890.0" y="226.12" font-size="18" text-anchor="middle" fill="#1b1b1b" font-weight="normal">imitate format &amp; behaviour</text><line x1="690" y1="220" x2="758" y2="220" stroke="#1b1b1b" stroke-width="2.0" marker-end="url(#arw)"/><text x="540.0" y="390" font-size="22" text-anchor="middle" fill="#1b1b1b">loss  =  − Σ<tspan baseline-shift="-26%" font-size="14">t ∈ response</tspan>  log P<tspan baseline-shift="-26%" font-size="14">θ</tspan> ( y<tspan baseline-shift="-26%" font-size="14">t</tspan> | x , y<tspan baseline-shift="-26%" font-size="14">&lt;t</tspan> )</text></svg>