<svg xmlns="http://www.w3.org/2000/svg" viewBox="0 0 1180 460" font-family="'Times New Roman', Georgia, serif"><rect x="0" y="0" width="1180" height="460" fill="#ffffff"/><defs><marker id="arw" markerWidth="11" markerHeight="11" refX="8.5" refY="5" orient="auto" markerUnits="userSpaceOnUse"><path d="M1,1 L9,5 L1,9 Z" fill="#1b1b1b"/></marker></defs><rect x="70" y="34" width="30" height="22" rx="7" ry="7" fill="#f4ddc6" stroke="#7a6a58" stroke-width="1.8"/><text x="110" y="51" font-size="21" text-anchor="start" fill="#1b1b1b" font-weight="normal">Module</text><rect x="188" y="34" width="30" height="22" rx="7" ry="7" fill="#ededed" stroke="#bdbdbd" stroke-width="1.8"/><text x="228" y="51" font-size="21" text-anchor="start" fill="#1b1b1b" font-weight="normal">Generated Text</text><rect x="394" y="34" width="30" height="22" rx="7" ry="7" fill="#dde4ee" stroke="#92a1b6" stroke-width="1.8"/><text x="434" y="51" font-size="21" text-anchor="start" fill="#1b1b1b" font-weight="normal">Provided Text</text><rect x="70" y="110" width="320" height="96" rx="14" ry="14" fill="#ffffff" stroke="#1b1b1b" stroke-width="2.0"/><rect x="106" y="118" width="52" height="64" rx="6" ry="6" fill="#ffffff" stroke="#1b1b1b" stroke-width="1.8"/><rect x="96" y="128" width="52" height="64" rx="6" ry="6" fill="#ffffff" stroke="#1b1b1b" stroke-width="1.8"/><rect x="86" y="138" width="52" height="64" rx="6" ry="6" fill="#ffffff" stroke="#1b1b1b" stroke-width="1.8"/><line x1="106" y1="142" x2="138" y2="142" stroke="#1b1b1b" stroke-width="1.4"/><line x1="106" y1="156" x2="138" y2="156" stroke="#1b1b1b" stroke-width="1.4"/><line x1="106" y1="170" x2="138" y2="170" stroke="#1b1b1b" stroke-width="1.4"/><line x1="106" y1="184" x2="138" y2="184" stroke="#1b1b1b" stroke-width="1.4"/><text x="174" y="148" font-size="24" text-anchor="start" fill="#1b1b1b" font-weight="bold">DATA</text><text x="174" y="174" font-size="18" text-anchor="start" fill="#666" font-weight="normal" font-style="italic">where samples come from</text><text x="174" y="195" font-size="17" text-anchor="start" fill="#333" font-weight="normal">corpus · demos · prefs · synthetic</text><rect x="70" y="220" width="320" height="96" rx="14" ry="14" fill="#ffffff" stroke="#1b1b1b" stroke-width="2.0"/><circle cx="122" cy="268" r="32" fill="none" stroke="#1b1b1b" stroke-width="2"/><circle cx="122" cy="268" r="21" fill="none" stroke="#1b1b1b" stroke-width="2"/><circle cx="122" cy="268" r="10" fill="none" stroke="#1b1b1b" stroke-width="2"/><circle cx="122" cy="268" r="3.4" fill="#1b1b1b"/><text x="174" y="258" font-size="24" text-anchor="start" fill="#1b1b1b" font-weight="bold">OBJECTIVE</text><text x="174" y="284" font-size="18" text-anchor="start" fill="#666" font-weight="normal" font-style="italic">what it's rewarded to become</text><text x="174" y="305" font-size="17" text-anchor="start" fill="#333" font-weight="normal">CE · DPO · GRPO · KD</text><rect x="70" y="330" width="320" height="96" rx="14" ry="14" fill="#ffffff" stroke="#1b1b1b" stroke-width="2.0"/><circle cx="122" cy="378" r="20" fill="none" stroke="#1b1b1b" stroke-width="2"/><circle cx="122" cy="378" r="8" fill="none" stroke="#1b1b1b" stroke-width="2"/><line x1="142.0" y1="378.0" x2="152.0" y2="378.0" stroke="#1b1b1b" stroke-width="3.4" stroke-linecap="round"/><line x1="136.1" y1="392.1" x2="143.2" y2="399.2" stroke="#1b1b1b" stroke-width="3.4" stroke-linecap="round"/><line x1="122.0" y1="398.0" x2="122.0" y2="408.0" stroke="#1b1b1b" stroke-width="3.4" stroke-linecap="round"/><line x1="107.9" y1="392.1" x2="100.8" y2="399.2" stroke="#1b1b1b" stroke-width="3.4" stroke-linecap="round"/><line x1="102.0" y1="378.0" x2="92.0" y2="378.0" stroke="#1b1b1b" stroke-width="3.4" stroke-linecap="round"/><line x1="107.9" y1="363.9" x2="100.8" y2="356.8" stroke="#1b1b1b" stroke-width="3.4" stroke-linecap="round"/><line x1="122.0" y1="358.0" x2="122.0" y2="348.0" stroke="#1b1b1b" stroke-width="3.4" stroke-linecap="round"/><line x1="136.1" y1="363.9" x2="143.2" y2="356.8" stroke="#1b1b1b" stroke-width="3.4" stroke-linecap="round"/><text x="174" y="368" font-size="24" text-anchor="start" fill="#1b1b1b" font-weight="bold">ALGORITHM</text><text x="174" y="394" font-size="18" text-anchor="start" fill="#666" font-weight="normal" font-style="italic">how parameters update</text><text x="174" y="415" font-size="17" text-anchor="start" fill="#333" font-weight="normal">full · LoRA · QLoRA</text><rect x="660" y="150" width="180" height="170" rx="16" ry="16" fill="#f4ddc6" stroke="#7a6a58" stroke-width="1.8"/><line x1="708.0" y1="197.0" x2="750.0" y2="184.0" stroke="#1b1b1b" stroke-width="1.1" opacity="0.85"/><line x1="708.0" y1="197.0" x2="750.0" y2="210.0" stroke="#1b1b1b" stroke-width="1.1" opacity="0.85"/><line x1="708.0" y1="197.0" x2="750.0" y2="236.0" stroke="#1b1b1b" stroke-width="1.1" opacity="0.85"/><line x1="708.0" y1="197.0" x2="750.0" y2="262.0" stroke="#1b1b1b" stroke-width="1.1" opacity="0.85"/><line x1="708.0" y1="223.0" x2="750.0" y2="184.0" stroke="#1b1b1b" stroke-width="1.1" opacity="0.85"/><line x1="708.0" y1="223.0" x2="750.0" y2="210.0" stroke="#1b1b1b" stroke-width="1.1" opacity="0.85"/><line x1="708.0" y1="223.0" x2="750.0" y2="236.0" stroke="#1b1b1b" stroke-width="1.1" opacity="0.85"/><line x1="708.0" y1="223.0" x2="750.0" y2="262.0" stroke="#1b1b1b" stroke-width="1.1" opacity="0.85"/><line x1="708.0" y1="249.0" x2="750.0" y2="184.0" stroke="#1b1b1b" stroke-width="1.1" opacity="0.85"/><line x1="708.0" y1="249.0" x2="750.0" y2="210.0" stroke="#1b1b1b" stroke-width="1.1" opacity="0.85"/><line x1="708.0" y1="249.0" x2="750.0" y2="236.0" stroke="#1b1b1b" stroke-width="1.1" opacity="0.85"/><line x1="708.0" y1="249.0" x2="750.0" y2="262.0" stroke="#1b1b1b" stroke-width="1.1" opacity="0.85"/><line x1="750.0" y1="184.0" x2="792.0" y2="197.0" stroke="#1b1b1b" stroke-width="1.1" opacity="0.85"/><line x1="750.0" y1="184.0" x2="792.0" y2="223.0" stroke="#1b1b1b" stroke-width="1.1" opacity="0.85"/><line x1="750.0" y1="184.0" x2="792.0" y2="249.0" stroke="#1b1b1b" stroke-width="1.1" opacity="0.85"/><line x1="750.0" y1="210.0" x2="792.0" y2="197.0" stroke="#1b1b1b" stroke-width="1.1" opacity="0.85"/><line x1="750.0" y1="210.0" x2="792.0" y2="223.0" stroke="#1b1b1b" stroke-width="1.1" opacity="0.85"/><line x1="750.0" y1="210.0" x2="792.0" y2="249.0" stroke="#1b1b1b" stroke-width="1.1" opacity="0.85"/><line x1="750.0" y1="236.0" x2="792.0" y2="197.0" stroke="#1b1b1b" stroke-width="1.1" opacity="0.85"/><line x1="750.0" y1="236.0" x2="792.0" y2="223.0" stroke="#1b1b1b" stroke-width="1.1" opacity="0.85"/><line x1="750.0" y1="236.0" x2="792.0" y2="249.0" stroke="#1b1b1b" stroke-width="1.1" opacity="0.85"/><line x1="750.0" y1="262.0" x2="792.0" y2="197.0" stroke="#1b1b1b" stroke-width="1.1" opacity="0.85"/><line x1="750.0" y1="262.0" x2="792.0" y2="223.0" stroke="#1b1b1b" stroke-width="1.1" opacity="0.85"/><line x1="750.0" y1="262.0" x2="792.0" y2="249.0" stroke="#1b1b1b" stroke-width="1.1" opacity="0.85"/><circle cx="708.0" cy="197.0" r="7.5" fill="#ffffff" stroke="#1b1b1b" stroke-width="1.5"/><circle cx="708.0" cy="223.0" r="7.5" fill="#ffffff" stroke="#1b1b1b" stroke-width="1.5"/><circle cx="708.0" cy="249.0" r="7.5" fill="#ffffff" stroke="#1b1b1b" stroke-width="1.5"/><circle cx="750.0" cy="184.0" r="7.5" fill="#ffffff" stroke="#1b1b1b" stroke-width="1.5"/><circle cx="750.0" cy="210.0" r="7.5" fill="#ffffff" stroke="#1b1b1b" stroke-width="1.5"/><circle cx="750.0" cy="236.0" r="7.5" fill="#ffffff" stroke="#1b1b1b" stroke-width="1.5"/><circle cx="750.0" cy="262.0" r="7.5" fill="#ffffff" stroke="#1b1b1b" stroke-width="1.5"/><circle cx="792.0" cy="197.0" r="7.5" fill="#ffffff" stroke="#1b1b1b" stroke-width="1.5"/><circle cx="792.0" cy="223.0" r="7.5" fill="#ffffff" stroke="#1b1b1b" stroke-width="1.5"/><circle cx="792.0" cy="249.0" r="7.5" fill="#ffffff" stroke="#1b1b1b" stroke-width="1.5"/><text x="750.0" y="302" font-size="23" text-anchor="middle" fill="#1b1b1b" font-weight="normal">model</text><polyline points="390,158 626,158 626,235.0 660,235.0" fill="none" stroke="#1b1b1b" stroke-width="2.0" stroke-linejoin="round" stroke-linecap="round" marker-end="url(#arw)"/><polyline points="390,268 626,268 626,235.0 660,235.0" fill="none" stroke="#1b1b1b" stroke-width="2.0" stroke-linejoin="round" stroke-linecap="round" marker-end="url(#arw)"/><polyline points="390,378 626,378 626,235.0 660,235.0" fill="none" stroke="#1b1b1b" stroke-width="2.0" stroke-linejoin="round" stroke-linecap="round" marker-end="url(#arw)"/><rect x="920" y="200" width="200" height="70" rx="14" ry="14" fill="#ededed" stroke="#bdbdbd" stroke-width="1.8"/><text x="1020.0" y="242.48" font-size="22" text-anchor="middle" fill="#1b1b1b" font-weight="normal">trained model</text><line x1="840" y1="235.0" x2="918" y2="235" stroke="#1b1b1b" stroke-width="2.0" marker-end="url(#arw)"/></svg>