<svg xmlns="http://www.w3.org/2000/svg" viewBox="0 0 720 940" font-family="'Times New Roman', Georgia, serif"><rect x="0" y="0" width="720" height="940" fill="#ffffff"/><defs><marker id="arw" markerWidth="11" markerHeight="11" refX="8.5" refY="5" orient="auto" markerUnits="userSpaceOnUse"><path d="M1,1 L9,5 L1,9 Z" fill="#1b1b1b"/></marker></defs><rect x="60" y="30" width="30" height="22" rx="7" ry="7" fill="#f4ddc6" stroke="#7a6a58" stroke-width="1.8"/><text x="100" y="47" font-size="21" text-anchor="start" fill="#1b1b1b" font-weight="normal">Module</text><rect x="178" y="30" width="30" height="22" rx="7" ry="7" fill="#ededed" stroke="#bdbdbd" stroke-width="1.8"/><text x="218" y="47" font-size="21" text-anchor="start" fill="#1b1b1b" font-weight="normal">Generated Text</text><rect x="384" y="30" width="30" height="22" rx="7" ry="7" fill="#dde4ee" stroke="#92a1b6" stroke-width="1.8"/><text x="424" y="47" font-size="21" text-anchor="start" fill="#1b1b1b" font-weight="normal">Provided Text</text><rect x="150.0" y="860" width="300" height="64" rx="14" ry="14" fill="#ededed" stroke="#bdbdbd" stroke-width="1.8"/><text x="300.0" y="898.8" font-size="20" text-anchor="middle" fill="#1b1b1b" font-weight="normal">input embeddings</text><rect x="150.0" y="770" width="300" height="64" rx="14" ry="14" fill="#f4ddc6" stroke="#7a6a58" stroke-width="1.8"/><text x="300.0" y="808.8" font-size="20" text-anchor="middle" fill="#1b1b1b" font-weight="normal">RMSNorm</text><line x1="300" y1="860" x2="300" y2="834" stroke="#1b1b1b" stroke-width="2.0" marker-end="url(#arw)"/><rect x="120.0" y="660" width="360" height="64" rx="14" ry="14" fill="#f4ddc6" stroke="#7a6a58" stroke-width="1.8"/><text x="300.0" y="698.8" font-size="20" text-anchor="middle" fill="#1b1b1b" font-weight="normal">Attention  (GQA / MLA)</text><line x1="300" y1="770" x2="300" y2="724" stroke="#1b1b1b" stroke-width="2.0" marker-end="url(#arw)"/><rect x="150.0" y="540" width="300" height="64" rx="14" ry="14" fill="#f4ddc6" stroke="#7a6a58" stroke-width="1.8"/><text x="300.0" y="578.8" font-size="20" text-anchor="middle" fill="#1b1b1b" font-weight="normal">RMSNorm</text><line x1="300" y1="660" x2="300" y2="604" stroke="#1b1b1b" stroke-width="2.0" marker-end="url(#arw)"/><rect x="120.0" y="430" width="360" height="64" rx="14" ry="14" fill="#f4ddc6" stroke="#7a6a58" stroke-width="1.8"/><text x="300.0" y="468.8" font-size="20" text-anchor="middle" fill="#1b1b1b" font-weight="normal">MoE router → experts   /   SwiGLU</text><line x1="300" y1="540" x2="300" y2="494" stroke="#1b1b1b" stroke-width="2.0" marker-end="url(#arw)"/><rect x="150.0" y="300" width="300" height="64" rx="14" ry="14" fill="#f4ddc6" stroke="#7a6a58" stroke-width="1.8"/><text x="300.0" y="338.8" font-size="20" text-anchor="middle" fill="#1b1b1b" font-weight="normal">final RMSNorm</text><line x1="300" y1="430" x2="300" y2="364" stroke="#1b1b1b" stroke-width="2.0" marker-end="url(#arw)"/><rect x="150.0" y="210" width="300" height="64" rx="14" ry="14" fill="#f4ddc6" stroke="#7a6a58" stroke-width="1.8"/><text x="300.0" y="248.8" font-size="20" text-anchor="middle" fill="#1b1b1b" font-weight="normal">LM head</text><line x1="300" y1="300" x2="300" y2="274" stroke="#1b1b1b" stroke-width="2.0" marker-end="url(#arw)"/><rect x="150.0" y="120" width="300" height="64" rx="14" ry="14" fill="#ededed" stroke="#bdbdbd" stroke-width="1.8"/><text x="300.0" y="158.8" font-size="20" text-anchor="middle" fill="#1b1b1b" font-weight="normal">logits</text><line x1="300" y1="210" x2="300" y2="184" stroke="#1b1b1b" stroke-width="2.0" marker-end="url(#arw)"/><polyline points="500,820 550,820 550,660 482,660" fill="none" stroke="#1b1b1b" stroke-width="2.0" stroke-linejoin="round" stroke-linecap="round" marker-end="url(#arw)"/><polyline points="500,600 550,600 550,430 500,430" fill="none" stroke="#1b1b1b" stroke-width="2.0" stroke-linejoin="round" stroke-linecap="round" marker-end="url(#arw)"/><text x="558" y="740" font-size="16" text-anchor="start" fill="#666" font-weight="normal" font-style="italic">residual</text><text x="540" y="70" font-size="18" text-anchor="end" fill="#666" font-weight="normal" font-style="italic">one decoder block</text></svg>